<?xml version="1.0" encoding="utf-8"?>
<!-- Generator: Adobe Illustrator 19.0.0, SVG Export Plug-In . SVG Version: 6.00 Build 0)  -->
<svg version="1.1" id="Layer_1" xmlns="http://www.w3.org/2000/svg" xmlns:xlink="http://www.w3.org/1999/xlink" x="0px" y="0px"
	 viewBox="-463 265 32 32" style="enable-background:new -463 265 32 32;" xml:space="preserve">
<style type="text/css">
	.st0{fill:#7A2F2F;}
</style>
<g id="Flat_copy">
	<g>
		<g>
			<path class="st0" d="M-447,265.4c-8.6,0-15.6,7-15.6,15.6c0,8.6,7,15.6,15.6,15.6s15.6-7,15.6-15.6
				C-431.4,272.4-438.4,265.4-447,265.4z M-441.8,288.1c-0.7,0.5-1.6,0.8-2.2,0.9c-0.6,0.1-1.3,0.2-2,0.2c-0.7,0-1.5-0.1-2.1-0.3
				c-0.6-0.2-1-0.4-1.4-0.8s-0.6-0.8-0.8-1.2c-0.2-0.4-0.3-1.3-0.3-2.1v-6.1h-2.2V276c0.7,0,1.3-0.3,1.8-0.7
				c0.5-0.4,0.9-0.9,1.2-1.5c0.3-0.6,0.3-1.3,0.3-2.2h2.8v4.4h4.4v2.8h-4.4v4.4c0,1,0.1,1.9,0.2,2.1s0.3,0.5,0.6,0.7
				c0.4,0.2,0.8,0.4,1.3,0.4c0.9,0,1.9-0.3,2.8-1V288.1z"/>
		</g>
	</g>
</g>
</svg>
