<?xml version="1.0" encoding="utf-8"?>
<!-- Generator: Adobe Illustrator 19.0.0, SVG Export Plug-In . SVG Version: 6.00 Build 0)  -->
<svg version="1.1" id="Layer_1" xmlns="http://www.w3.org/2000/svg" xmlns:xlink="http://www.w3.org/1999/xlink" x="0px" y="0px"
	 viewBox="-463 265 32 32" style="enable-background:new -463 265 32 32;" xml:space="preserve">
<style type="text/css">
	.st0{fill:#7A2F2F;}
</style>
<g id="Flat_copy">
	<g>
		<g>
			<path class="st0" d="M-447,265.4c-8.6,0-15.6,7-15.6,15.6s7,15.6,15.6,15.6c8.6,0,15.6-7,15.6-15.6S-438.4,265.4-447,265.4z
				 M-438.3,275.7c-0.1,0.1-0.5,0.6-0.9,1c-0.7,0.7-0.8,0.8-0.8,1.4c0,0.9-0.4,2.8-0.9,3.9c-0.8,2-2.5,4-4.2,5
				c-2.4,1.4-5.6,1.8-8.3,1c-0.9-0.3-2.5-1-2.5-1.1c0,0,0.5-0.1,1-0.1c1.2,0,2.4-0.4,3.4-1l0.7-0.4l-0.8-0.3
				c-1.1-0.4-2.1-1.3-2.4-2.1c-0.1-0.3,0-0.3,0.7-0.3l0.7,0l-0.6-0.3c-0.7-0.4-1.4-1-1.7-1.6c-0.2-0.5-0.5-1.6-0.5-1.7
				c0,0,0.3,0,0.6,0.1c0.9,0.3,1,0.3,0.5-0.3c-1-1-1.2-2.4-0.8-3.8l0.2-0.6l0.8,0.8c1.7,1.7,3.7,2.7,6.1,3l0.6,0.1l0-0.6
				c-0.1-1.6,0.9-3.1,2.5-3.7c0.6-0.2,1.6-0.2,2.2-0.1c0.3,0.1,0.7,0.3,1.1,0.6l0.6,0.4l0.7-0.2c0.4-0.1,0.9-0.3,1.1-0.4
				c0.2-0.1,0.4-0.2,0.4-0.1c0,0.2-0.5,1-0.9,1.4c-0.5,0.6-0.4,0.6,0.7,0.2C-438.2,275.4-438.1,275.4-438.3,275.7z"/>
			<path class="st0" d="M-447,265.8c-8.4,0-15.3,6.8-15.3,15.3s6.8,15.3,15.3,15.3s15.3-6.8,15.3-15.3S-438.6,265.8-447,265.8z
				 M-438.3,275.7c-0.1,0.1-0.5,0.6-0.9,1c-0.7,0.7-0.8,0.8-0.8,1.4c0,0.9-0.4,2.8-0.9,3.9c-0.8,2-2.5,4-4.2,5
				c-2.4,1.4-5.6,1.8-8.3,1c-0.9-0.3-2.5-1-2.5-1.1c0,0,0.5-0.1,1-0.1c1.2,0,2.4-0.4,3.4-1l0.7-0.4l-0.8-0.3
				c-1.1-0.4-2.1-1.3-2.4-2.1c-0.1-0.3,0-0.3,0.7-0.3l0.7,0l-0.6-0.3c-0.7-0.4-1.4-1-1.7-1.6c-0.2-0.5-0.5-1.6-0.5-1.7
				c0,0,0.3,0,0.6,0.1c0.9,0.3,1,0.3,0.5-0.3c-1-1-1.2-2.4-0.8-3.8l0.2-0.6l0.8,0.8c1.7,1.7,3.7,2.7,6.1,3l0.6,0.1l0-0.6
				c-0.1-1.6,0.9-3.1,2.5-3.7c0.6-0.2,1.6-0.2,2.2-0.1c0.3,0.1,0.7,0.3,1.1,0.6l0.6,0.4l0.7-0.2c0.4-0.1,0.9-0.3,1.1-0.4
				c0.2-0.1,0.4-0.2,0.4-0.1c0,0.2-0.5,1-0.9,1.4c-0.5,0.6-0.4,0.6,0.7,0.2C-438.2,275.4-438.1,275.4-438.3,275.7z"/>
		</g>
	</g>
</g>
</svg>
