<?xml version="1.0" encoding="utf-8"?>
<!-- Generator: Adobe Illustrator 19.0.0, SVG Export Plug-In . SVG Version: 6.00 Build 0)  -->
<svg version="1.1" id="Layer_1" xmlns="http://www.w3.org/2000/svg" xmlns:xlink="http://www.w3.org/1999/xlink" x="0px" y="0px"
	 viewBox="-463 265 32 32" style="enable-background:new -463 265 32 32;" xml:space="preserve">
<style type="text/css">
	.st0{fill:#7A2F2F;}
</style>
<g>
	<path class="st0" d="M-450.2,281c0-1.7,1.4-3.1,3.2-3.1c1.8,0,3.2,1.4,3.2,3.1c0,1.7-1.5,3.1-3.2,3.1
		C-448.8,284.1-450.2,282.7-450.2,281z"/>
	<path class="st0" d="M-440.9,275.5v2c0,0.3-0.2,0.5-0.5,0.5h-2c-0.3,0-0.5-0.2-0.5-0.5v-2c0-0.3,0.2-0.5,0.5-0.5h2
		C-441.2,274.9-440.9,275.2-440.9,275.5z"/>
	<path class="st0" d="M-442.2,279.8l1.2-0.3v7.1c0,0.4-0.2,0.5-0.5,0.5h-11.1c-0.4,0-0.5-0.2-0.5-0.5v-7.1l1.3,0.3
		c-0.1,0.4-0.2,0.9-0.2,1.4c0,2.7,2.3,4.9,5,4.9s5-2.2,5-4.9C-442,280.7-442,280.2-442.2,279.8z"/>
	<path class="st0" d="M-447,265.4c-8.6,0-15.6,7-15.6,15.6c0,8.6,7,15.6,15.6,15.6c8.6,0,15.6-7,15.6-15.6
		C-431.4,272.4-438.4,265.4-447,265.4z M-438.9,287.1c0,1.1-0.9,2-2,2h-12.1c-1.1,0-2-0.9-2-2v-12.1c0-1.1,0.9-2,2-2h12.1
		c1.1,0,2,0.9,2,2V287.1z"/>
</g>
</svg>
