<?xml version="1.0" encoding="utf-8"?>
<!-- Generator: Adobe Illustrator 19.0.0, SVG Export Plug-In . SVG Version: 6.00 Build 0)  -->
<svg version="1.1" id="Layer_1" xmlns="http://www.w3.org/2000/svg" xmlns:xlink="http://www.w3.org/1999/xlink" x="0px" y="0px"
	 viewBox="0 0 540.8 149.4" style="enable-background:new 0 0 540.8 149.4;" xml:space="preserve">
<style type="text/css">
	.st0{clip-path:url(#XMLID_188_);fill:#BBBDBF;}
	.st1{clip-path:url(#XMLID_188_);fill:#FDCA80;}
	.st2{clip-path:url(#XMLID_188_);fill:#EF493E;}
	.st3{clip-path:url(#XMLID_188_);fill:#575843;}
	.st4{clip-path:url(#XMLID_188_);fill:#FFE4B8;}
	.st5{fill:#6CBD45;}
	.st6{fill:#BBBDBF;}
	.st7{fill:#E6E7E8;}
	.st8{clip-path:url(#XMLID_189_);fill:#6CBD45;}
	.st9{clip-path:url(#XMLID_189_);fill:#EF493E;}
	.st10{clip-path:url(#XMLID_189_);fill:#808184;}
	.st11{clip-path:url(#XMLID_189_);fill:#BBBDBF;}
	.st12{clip-path:url(#XMLID_190_);fill:#FFE4B8;}
	.st13{clip-path:url(#XMLID_190_);fill:#6CBD45;}
	.st14{clip-path:url(#XMLID_190_);fill:#EF493E;}
	.st15{clip-path:url(#XMLID_190_);fill:#397338;}
	.st16{clip-path:url(#XMLID_190_);fill:#40403E;}
	.st17{clip-path:url(#XMLID_190_);fill:#575843;}
	.st18{fill:#EF493E;}
	.st19{clip-path:url(#XMLID_191_);fill:#40403E;}
	.st20{clip-path:url(#XMLID_191_);fill:#575843;}
	.st21{clip-path:url(#XMLID_191_);fill:#FFE4B8;}
	.st22{clip-path:url(#XMLID_191_);fill:#A22322;}
	.st23{clip-path:url(#XMLID_191_);fill:#EF493E;}
	.st24{fill:#575843;}
	.st25{clip-path:url(#XMLID_192_);fill:#FFE4B8;}
	.st26{clip-path:url(#XMLID_192_);fill:#575843;}
	.st27{clip-path:url(#XMLID_193_);fill:#575843;}
	.st28{clip-path:url(#XMLID_193_);fill:#40403E;}
	.st29{clip-path:url(#XMLID_193_);fill:#6CBD45;}
	.st30{clip-path:url(#XMLID_194_);fill:#FDCA80;}
	.st31{clip-path:url(#XMLID_194_);fill:#575843;}
	.st32{clip-path:url(#XMLID_195_);fill:#6CBD45;}
	.st33{clip-path:url(#XMLID_195_);fill:#575843;}
	.st34{clip-path:url(#XMLID_195_);fill:#FFE4B8;}
	.st35{clip-path:url(#XMLID_195_);fill:#FDCA80;}
	.st36{clip-path:url(#XMLID_196_);fill:#575843;}
	.st37{clip-path:url(#XMLID_196_);fill:#FFE4B8;}
	.st38{clip-path:url(#XMLID_196_);fill:#AF8549;}
	.st39{clip-path:url(#XMLID_196_);fill:#FDCA80;}
	.st40{clip-path:url(#XMLID_196_);fill:#6CBD45;}
	.st41{clip-path:url(#XMLID_196_);fill:#397338;}
	.st42{clip-path:url(#XMLID_196_);fill:#EF493E;}
	.st43{clip-path:url(#XMLID_197_);fill:#EE4340;}
	.st44{clip-path:url(#XMLID_197_);fill:#575843;}
	.st45{clip-path:url(#XMLID_197_);fill:#EF493E;}
	.st46{clip-path:url(#XMLID_197_);fill:#BBBDBF;}
	.st47{clip-path:url(#XMLID_197_);fill:#FDCA80;}
	.st48{clip-path:url(#XMLID_197_);fill:#808184;}
	.st49{clip-path:url(#XMLID_197_);fill:#FFE4B8;}
</style>
<g id="XMLID_57_">
	<defs>
		<polygon id="XMLID_58_" points="37.1,124.7 236.1,125.7 236.1,24.7 37.1,23.7 		"/>
	</defs>
	<clipPath id="XMLID_188_">
		<use xlink:href="#XMLID_58_"  style="overflow:visible;"/>
	</clipPath>
	<path id="XMLID_77_" class="st0" d="M76.3,71.8c0,0,1.4,5.9,4.3,11.5c2.8,5.7,0,4.8,0,4.8s-2.5-2.5-4.8-6c-2.4-3.4-4.2-8.3-4.2-8.3
		L76.3,71.8z"/>
	<path id="XMLID_76_" class="st1" d="M61.8,62.7c0,0,0.8,2.6-1.2,4.1c-2.1,1.5,4.2,5.4,4.2,5.4l4.4-0.8l1.8-3.9h-2.5
		c0,0-1.3-1.6-0.9-4.7c0.5-3.2-4.2-1-4.2-1L61.8,62.7z"/>
	<path id="XMLID_75_" class="st2" d="M70.1,105.6l1,11.4c0,0,7.9,1.7,11.6-0.2c0,0,1.2-1-0.2-1.8c-1.4-0.7-7.2-2.6-7.2-2.6
		s0.4-4,0-7.6L70.1,105.6z"/>
	<path id="XMLID_74_" class="st2" d="M56.2,105.4c0,0-0.5,5.2,0.1,9c0,0-5.4,3.9-5,6c0.4,2.2,6.3,0.9,6.3,0.9s2.7-1,2.1-5.9
		c0,0,2.1-9,1.9-11.5C61.4,101.4,56.2,105.4,56.2,105.4"/>
	<path id="XMLID_73_" class="st3" d="M74.5,91.7c0,0,2.5,9.3,1.6,13.1c-0.9,3.8-6,3.2-6,3.2s-1.7,0-2.2-4.8c0,0,0.1-1.4-1.9-3.5
		c0,0-1.3,0.7-1.9,2c-0.6,1.3-1,5.2-2,6.2c-1,0.9-4.1,1-5.5,0.3c-1.5-0.6-4-4.7-2-8.8c2-4.1,3.2-8,3.2-8l10.2,0.2L74.5,91.7z"/>
	<path id="XMLID_72_" class="st4" d="M77.9,44.6c0,0,3.3,14.6-4.4,17.2c-7.6,2.5-10.6,3.4-20.1-0.4c0,0-6.4-4.5-4.5-14.6
		c1.4-7,14.2-12.4,14.2-12.4l9.5,4.6L77.9,44.6z"/>
	<path id="XMLID_71_" class="st2" d="M58.2,65.4c0,0-2.6,0.2-3.9,2c-1.3,1.7-2.7,5.8-2.7,5.8l5.5,19.2l1.4,3.2c0,0,19,0.4,17.7-2.9
		c-0.5-1.3-1.2-6.7-2.3-8.1l-0.9-1l-1-2c0,0,1.1-0.6,1.1-1.4c0-0.8-0.6-5.4-0.6-6.4c0-1.1,5.3-2.3,5.3-2.3s-1.9-6-5-6
		c-1.5,0-3.6-0.1-3.6-0.1L65,70.8l-3.6-3.7L58.2,65.4z"/>
	<path id="XMLID_70_" class="st3" d="M61.2,52.1c0,0.9-0.8,1.7-1.7,1.7c-0.9,0-1.7-0.8-1.7-1.7s0.8-1.7,1.7-1.7
		C60.5,50.4,61.2,51.2,61.2,52.1"/>
	<path id="XMLID_69_" class="st3" d="M74.6,52.4c0,0.9-0.8,1.7-1.7,1.7c-0.9,0-1.7-0.8-1.7-1.7c0-0.9,0.8-1.7,1.7-1.7
		C73.9,50.7,74.6,51.4,74.6,52.4"/>
	<path id="XMLID_68_" class="st3" d="M66.1,60.3L66.1,60.3c-2-0.1-3.3-2-3.3-2l0.8-0.5c0,0,1.1,1.6,2.5,1.6c0.8,0,1.6-0.5,2.4-1.5
		l0.8,0.6C68.2,59.7,67.2,60.3,66.1,60.3"/>
	<path id="XMLID_67_" class="st3" d="M61.2,82.4c0,0,9-0.8,11.3-1.1l1.2,3c0,0-8.3,3.1-13,0.8C56.1,82.8,61.2,82.4,61.2,82.4"/>
	<path id="XMLID_64_" class="st3" d="M59.3,83.5c0,0,0.1,0.4,1.7,1.2c1.1,0.5,2.5,0.8,4.2,0.8c3.2,0,6.6-1,7.9-1.4l-0.9-2.2
		c-2.7,0.3-10.6,1-10.9,1.1C60.4,83,59.5,83.2,59.3,83.5 M65.2,86.5c-1.8,0-3.4-0.3-4.6-0.9c-1.7-0.8-2.4-1.5-2.2-2.3
		c0.2-1,2.1-1.3,2.9-1.3c0.1,0,9-0.8,11.3-1.1l0.4-0.1l1.6,3.9l-0.5,0.2C73.8,84.9,69.4,86.5,65.2,86.5"/>
	<path id="XMLID_63_" class="st3" d="M58.7,79.3c0,0,9.2-11.1,10.4-13.8l1.5-0.1l1.5,0.1c0,0-6.1,12.4-10.9,15.5"/>
	<path id="XMLID_62_" class="st0" d="M65,70.8c0,0-0.5-1.5-0.7-1.7c-0.5-1.1-1.9-3.9-4.5-4.1c-3.1-0.3-3.4,0.5-3.4,0.5l5.6,3.9
		C62.2,69.4,62.8,68.5,65,70.8"/>
	<path id="XMLID_61_" class="st0" d="M65,70.8c0,0,0.4-1.5,0.5-1.8c0.4-1.1,1.6-4,4.1-4.5c3.1-0.5,3.4,0.3,3.4,0.3l-5.3,4.4
		C67.7,69.2,67,68.3,65,70.8"/>
	<path id="XMLID_60_" class="st3" d="M61,38c0,0,0.8,9.3,4.5,10.5c3.7,1.2,3.4,1,1.5-2.1c-1.9-3.1-0.3-2.1-0.3-2.1s5,4.2,7.2,3.9
		c2.2-0.3-0.4-0.8-0.9-3.5c0,0,6.7,3.7,4.1,8.4c0,0,1.4,0,1.5-1.6c0-1.6,0.4,2.2-1.2,4.2c0,0,2.6,0.2,3.2-4.7c0.6-5,0.9-14-7.9-18.6
		c-8.8-4.5-10.2-2.1-10.4-2.1c-0.3,0,5.1-3.5,5.8-3c0,0-12.5-0.2-15.2,4c0,0-1.5,1.5-1.2,2.3c0,0-4.4-1.3-6.5,4.1c0,0,1-1.1,2.3-1.1
		c0,0-7.6,10.7-0.5,16.6l2.6-0.8c0,0-0.2,3.5,2.3,4.6c0,0-0.5-0.4-0.4-2.8c0,0,0.7,2.2,2.1,2.8c0,0-1-4.1-0.3-6.1
		C54,49,61,46.4,61,38"/>
	<path id="XMLID_59_" class="st4" d="M49.5,52.2c0,0-3.5-5.3-2.9,1c0,0,0.7,4.2,3.9,2.7L49.5,52.2z"/>
</g>
<rect id="XMLID_56_" x="79.7" y="81.7" transform="matrix(0.7439 0.6683 -0.6683 0.7439 78.4955 -32.1473)" class="st5" width="2.9" height="9.3"/>
<polygon id="XMLID_55_" class="st6" points="98.7,61.4 104.6,60.2 104.3,66.3 86.9,82.4 84.8,79.8 "/>
<polygon id="XMLID_54_" class="st7" points="104.6,60.2 85.9,80.8 88.2,81.2 104.3,66.3 "/>
<g id="XMLID_45_">
	<defs>
		<polygon id="XMLID_46_" points="37.1,124.7 236.1,125.7 236.1,24.7 37.1,23.7 		"/>
	</defs>
	<clipPath id="XMLID_189_">
		<use xlink:href="#XMLID_46_"  style="overflow:visible;"/>
	</clipPath>
	<path id="XMLID_53_" class="st8" d="M92.8,83l-3.9,2.9c0,0-1.8,2.2-3.3,0c-0.7-1-1-1.6-1.2-1.9l-1-1l0,0c0,0-0.2-0.2-1.9-1.5
		c-1.9-1.5,0.2-3,0.2-3l2.8-3.4c1.3,0.9,2.4,2.6,0.8,4.3c-0.5,0.5-0.8,1-1.1,1.5l2,2.1c0.6-0.3,1.3-0.7,2-1.3
		C90.2,80.1,91.9,81.5,92.8,83"/>
	<path id="XMLID_52_" class="st9" d="M87.7,82.1c-0.8,1.1-2.1,1.4-2.9,0.8c-0.8-0.6-0.8-2,0-3.1c0.8-1.1,2.1-1.4,2.9-0.8
		C88.6,79.6,88.5,81,87.7,82.1"/>
	<path id="XMLID_49_" class="st8" d="M86.8,79.1c-0.6,0-1.3,0.4-1.7,1c-0.7,0.9-0.8,2.1-0.1,2.6c0.2,0.2,0.4,0.2,0.7,0.2
		c0.6,0,1.3-0.4,1.7-1c0.7-0.9,0.8-2.1,0.1-2.6C87.4,79.1,87.1,79.1,86.8,79.1 M85.7,83.5c-0.4,0-0.8-0.1-1.1-0.4
		c-0.9-0.7-1-2.3,0-3.5c0.6-0.8,1.5-1.3,2.3-1.3c0.4,0,0.8,0.1,1.1,0.4c1,0.7,1,2.3,0,3.5C87.4,83.1,86.5,83.5,85.7,83.5"/>
	<path id="XMLID_48_" class="st10" d="M37.2,81.7c0,0-0.1-0.8-0.1-2.4c0-2.8,1.6-4.3,5.1-6c7.9-3.7,16.7-4.9,18.1-1.9
		c1.4,3,3.3,18.1,0.1,23.3c-3,4.9-4.9,6.8-4.9,6.8s-2.8,3.4-5.7,1.4c0,0-7.3-3.3-9.6-10.5C37.8,85.1,37.2,81.7,37.2,81.7"/>
	<path id="XMLID_47_" class="st11" d="M38.9,82.4c0,0-0.1-0.7-0.1-2c0-2.4,1.4-3.7,4.4-5.1C50,72,57.6,71,58.8,73.6
		c1.2,2.6,2.8,15.6,0.1,20c-2.6,4.2-4.3,5.8-4.3,5.8s-2.4,2.9-4.9,1.2c0,0-6.3-2.8-8.3-9C39.4,85.3,38.9,82.4,38.9,82.4"/>
</g>
<polygon id="XMLID_44_" class="st7" points="55,89.5 50.9,88.3 47.7,91.2 47.4,86.6 43.7,84.2 47.6,82.6 48.5,78.2 51.3,81.8 
	55.5,81.4 53.3,85.2 "/>
<g id="XMLID_33_">
	<defs>
		<polygon id="XMLID_34_" points="37.1,124.7 236.1,125.7 236.1,24.7 37.1,23.7 		"/>
	</defs>
	<clipPath id="XMLID_190_">
		<use xlink:href="#XMLID_34_"  style="overflow:visible;"/>
	</clipPath>
	<path id="XMLID_43_" class="st12" d="M82.5,88.3c-0.8,0.5-1.6,0.7-1.8,0.4l-0.6-1c-0.2-0.3,0.3-0.9,1.2-1.4
		c0.8-0.5,1.6-0.7,1.8-0.4l0.6,1C83.8,87.2,83.3,87.8,82.5,88.3"/>
	<path id="XMLID_42_" class="st12" d="M81.1,85.6c-0.4,0.1-0.8,0.1-0.9-0.2L80,84.5c-0.1-0.2,0.2-0.5,0.6-0.7
		c0.4-0.1,0.8-0.1,0.9,0.2l0.3,0.9C81.8,85.1,81.5,85.4,81.1,85.6"/>
	<path id="XMLID_41_" class="st13" d="M79.9,91.4c-0.7,0.7-1.8,0.6-2.4,0l-1.1-1.1c-0.7-0.7-0.6-1.8,0-2.4c0.7-0.7,1.8-0.6,2.4,0
		l1.1,1.1C80.6,89.6,80.6,90.7,79.9,91.4"/>
	<path id="XMLID_40_" class="st14" d="M184.8,64.9c0,0,1.2,1.3,0,4.8c-1.2,3.5,0.5,7.7,0.5,7.7l6-1.3l-0.5-8.7L184.8,64.9z"/>
	<path id="XMLID_39_" class="st14" d="M184.8,55.4c0,0-0.8,5.3-6.6,7.7c-5.8,2.4-5.5,4.9-3.1,7.1c2.4,2.2,6.4,1.1,6.1,4
		c-0.4,2.9,0.7,4.1,3.2,4.5c0,0-1.6,0.1-1.6-2.1c0-2.2,2.4-0.9,0-5.1c-2.4-4.2-0.1-2.6,2.1-3.6c2.2-0.9,7.4-0.7,0.6,10.8
		c0,0-1.6,6.6,4.7,4.2c0,0-3.9,0.3-2.1-3c1.8-3.3,4-1.9,5.6-3.7c1.6-1.9,8-5.2,7.3-9.7c-0.7-4.6-14.8-13.2-14.8-13.2L184.8,55.4z"/>
	<path id="XMLID_38_" class="st15" d="M182.9,74.1c0,0-1.7,7.7,14.4,10.4c16.1,2.7,22.8-5.6,21.6-6.8c-1.2-1.3-28.3-5.5-28.3-5.5
		h-4.7C185.9,72.2,183.9,72,182.9,74.1"/>
	<path id="XMLID_37_" class="st14" d="M218,66.3c0,0,3.7,8.8,9.9,4.2c0,0-3,6.5-11.1,2.9l-9.7,1.2l-6.2-0.5l0.1-6.5l5.2-4.1l8.9,0.6
		L218,66.3z"/>
	<path id="XMLID_36_" class="st16" d="M186.6,89.4c0,0-6.8,0.5-8.3,3.2c-1.5,2.7,0.7,7.6,3,8.7c2.3,1,4.4-3,6,2.3
		c1.6,5.2,6.8,9.2,12.6,9c5.8-0.2,8.9-11.6,8.9-11.6l-12.5-11L186.6,89.4z"/>
	<path id="XMLID_35_" class="st17" d="M177.1,75.7c0,0,12.5-2.8,16.2-4.2c3.7-1.4,4.8,0,4.8,0l-6.3,4.5c0,0-13.4,3.3-15.2,2
		C174.7,76.8,177.1,75.7,177.1,75.7"/>
</g>
<polygon id="XMLID_32_" class="st18" points="192.7,96.7 186.6,116.3 189.5,117.7 199.9,96.9 "/>
<g id="XMLID_22_">
	<defs>
		<polygon id="XMLID_23_" points="37.1,124.7 236.1,125.7 236.1,24.7 37.1,23.7 		"/>
	</defs>
	<clipPath id="XMLID_191_">
		<use xlink:href="#XMLID_23_"  style="overflow:visible;"/>
	</clipPath>
	<path id="XMLID_31_" class="st19" d="M232.9,48.7c0,0-0.8,4.6-7.6,8c-7.1,3.6-13.7,3.3-17.5,2.2c-3.9-1-26-3-31.2-8.8
		c-5.1-5.8-4.4-8.7-3.8-10.2c0.6-1.4,5.9-6.5,23.3,0c17.4,6.5,27.2,11,27.2,11L232.9,48.7z"/>
	<path id="XMLID_30_" class="st20" d="M198.6,68.2c0,0,0.3,1,0,2.7c-0.3,1.6-5.3,10.5-5.8,14.2c0,0-0.8,1.9-4,1.9c0,0-3.8,0.3-6,1.6
		c-2.1,1.3-3.9,2.7-4.5,4c0,0,9.6-4.5,11.2,7.8c0,0,0.5,3.4,5.4,0c0,0,3.8-1.2,5.1,1.5c0,0,2.8,4.4,1.8,9.8c0,0-1.6,4.7,0.2,7.5
		c0,0,3,4.2,9.1,1.8c0,0,6.3-1.7,4.1,2.7c0,0-2,3.1,4.9,1.5c0,0,11.8-0.9,5.6-5.6c-6.3-4.7,3.2-3,5.7-4.2c2.5-1.3,5.1-6.2,4-11.2
		c-1.1-5,1.9-7.2,0.3-9.2c-1.6-2.1-10.5-1.8-5.3-12.2c0,0-7.6,5.9-7.2,12.4c0.5,6.5-3.2,4.8-4.8,3.1c-1.6-1.7-7.3-10.2-7.8-14
		c-0.5-3.9-0.7-5.6-0.7-5.6s6,7.7,8.2,8.8c0,0,1.1-2.3,2.1-1.5c0,0-4.8-6.9-7.6-10c-2.7-3.2-7.6-3.7-7.6-3.7l0.7-0.8
		c0,0-1.5-5.3,2.3-5c3.8,0.2-9.3,0-9.3,0V68.2z"/>
	<path id="XMLID_29_" class="st21" d="M184.8,52.6c0,0,2.3,5.8,2.5,8.3c0.2,2.5,0.3,8.9,13.6,8c13.4-0.9,12.3-3.8,12.6-4.5
		c0.3-0.8-0.4-17.8-2.2-18.5c-1.8-0.7-24.3-4.2-24.3-4.2L184.8,52.6z"/>
	<path id="XMLID_28_" class="st22" d="M189.8,48.2c0,0,2.6-0.9,3,0.1c0,0,3.1-2.8,5.3-0.2c2.2,2.6,4.1-5,4.1-5l-8.2-2.3l-5.3,1.6
		L189.8,48.2z"/>
	<path id="XMLID_27_" class="st23" d="M192.8,47.5c0,0,2-6.2,3.4-1.8c0,0-1,6.9,0.5,9.1c1.5,2.1,2.7,2.1,4.2,2.3
		c0,0-2.4-1.5-1.7-7.4c0,0,2.2,7.2,7,6.8c0,0-2.1-0.1-2.8-6.2c0,0,6.2,1.1,6.2,13.2c0,0-0.4,5.3-0.9,6.4c-0.5,1.1,0.3,2.3,4.1,3.3
		c2.4,0.6,3.7,1.8,4,3.2c0.2,0.8,0.5,1.8,1.1,0.7c0.6-1.2,0.7-3.1-1.7-5.8c0,0-0.9-0.7-1.9-1.2c-1-0.5-2.2-2.7-1.5-6.2
		c0.7-3.6,1.4-2.1,2.3-6.4c0.9-4.4-1.6-15.1-7.8-16.2C201.2,40,192.2,37.1,192.8,47.5"/>
	<path id="XMLID_26_" class="st23" d="M194.4,38.6c0,0-5.9-0.9-9,3.1c0,0-0.7,1.5-0.5,3.5c0,0-0.2,4-2.2,5.8c-2,1.8-5.4,9.4,3.7,11
		c0,0-3.4-2.5,0.4-8.4c0,0,1.1-1.2,2.4-2.6c1.3-1.4,2.3-6.2,0.8-7.7c0,0,2.9,1.9,2.9,4.8c0,0,0.3-13.5,8.8-5.5v-4.5L194.4,38.6z"/>
	<path id="XMLID_25_" class="st23" d="M216,48.7c0,0,3.5,6.4,0.9,12.3c0,0-1.2,1.6,1.4,1.7c2.6,0.1,13.4-1.1,11.8,7.7
		c0,0-0.2,1.9-1.4,2.8c-1.2,0.9-6.7,5.6-2,6.4c0,0-4.4,0.7-4.1-2.1c0.3-2.7,2.7-3.3,4.1-6.3c0,0,1.2-2.8-3.6-2.8
		c0,0-2.4,0.1-3.3,0.4c-0.9,0.4-4,3.1-8.4-3.5c-4.4-6.6,1.4-16.8,1.4-16.8H216z"/>
	<path id="XMLID_24_" class="st20" d="M172.8,40c0,0,4-7.3,20.3,2.7c16.3,10,14.4,8.4,19.7,10.3c5.4,1.8,20.1,3,21.6-4.9
		c1.5-7.9-0.3,2.4-10.6-1l-3.8-1.7c0,0,3.6,0.3,6-0.2c1.5-0.3,2.2-0.8,2.7-1.6c1-1.8-1-2.5-0.3-3.8c0.7-1.3-3.8-8.7-7.9-8.9
		c0,0,3.5,3,3.2,6.7c-0.3,3.8-0.9,3.7-2.2,3.1c-1.3-0.6-10.7-15.4-10.7-15.4s-1.8-1.7-3.7,0.3c-3,3-10.6,8.9-11.8,9.8
		c-1.4,1.1-3.3,2.1-5.4,1.9c-2.8-0.3-8.8-1.7-12.1-0.7C177.9,36.7,172.7,37.6,172.8,40"/>
</g>
<polygon id="XMLID_21_" class="st24" points="174.6,77.5 176.1,77 166.5,53.1 165.8,53.4 "/>
<g id="XMLID_14_">
	<defs>
		<polygon id="XMLID_15_" points="37.1,124.7 236.1,125.7 236.1,24.7 37.1,23.7 		"/>
	</defs>
	<clipPath id="XMLID_192_">
		<use xlink:href="#XMLID_15_"  style="overflow:visible;"/>
	</clipPath>
	<path id="XMLID_20_" class="st25" d="M178.3,76.9c0,0.9-0.6,1.7-1.3,1.7h-2.5c-0.7,0-1.3-0.8-1.3-1.7c0-0.9,0.6-1.7,1.3-1.7h2.5
		C177.7,75.3,178.3,76,178.3,76.9"/>
	<path id="XMLID_19_" class="st25" d="M221.8,89.2c-0.7,0.6-1.6,0.8-2.1,0.3l-1.7-1.8c-0.5-0.5-0.3-1.4,0.3-2.1
		c0.7-0.6,1.6-0.8,2.1-0.3l1.7,1.8C222.6,87.7,222.5,88.6,221.8,89.2"/>
	<path id="XMLID_18_" class="st26" d="M192.6,57.6c0,0.9-0.7,1.6-1.6,1.6c-0.9,0-1.6-0.7-1.6-1.6c0-0.9,0.7-1.6,1.6-1.6
		C191.8,56,192.6,56.7,192.6,57.6"/>
	<path id="XMLID_17_" class="st26" d="M205.5,57.6c0,0.9-0.7,1.6-1.6,1.6c-0.9,0-1.6-0.7-1.6-1.6c0-0.9,0.7-1.6,1.6-1.6
		C204.7,56,205.5,56.7,205.5,57.6"/>
	<path id="XMLID_16_" class="st26" d="M197.4,65.4L197.4,65.4c-1.8,0-3.1-1.8-3.2-1.9l0.8-0.6c0,0,1.1,1.5,2.4,1.5h0
		c0.8,0,1.5-0.5,2.2-1.5l0.8,0.6C199.5,64.8,198.5,65.4,197.4,65.4"/>
</g>
<polygon id="XMLID_13_" class="st5" points="223.7,31.4 221,31.1 219.3,33.2 218.7,30.5 216.2,29.5 218.6,28.1 218.8,25.5 
	220.8,27.3 223.4,26.6 222.3,29.1 "/>
<g id="XMLID_4_">
	<defs>
		<polygon id="XMLID_5_" points="37.1,124.7 236.1,125.7 236.1,24.7 37.1,23.7 		"/>
	</defs>
	<clipPath id="XMLID_193_">
		<use xlink:href="#XMLID_5_"  style="overflow:visible;"/>
	</clipPath>
	<path id="XMLID_12_" class="st27" d="M189.2,120.1l-2.6-2.4c0,0-5.5-4.3-5.4-5.6c0.1-1.3,1.5-2,1.5-2c0.9-0.1,2.7,1.8,4.6,3.6
		l1.8-5.7c0,0,2.3-2.4,4.5,1.3l-3.6,7.2L189.2,120.1z"/>
	<path id="XMLID_9_" class="st27" d="M182.8,110.2c-0.2,0.1-1.4,0.7-1.5,1.9c-0.1,1,3.8,4.3,5.3,5.5l2.5,2.3l0.9-3.4l3.6-7.1
		c-0.8-1.3-1.6-2-2.6-2c-0.9,0-1.6,0.6-1.7,0.7l-1.8,5.8l-0.1-0.1c-0.4-0.3-0.7-0.7-1.1-1C184.9,111.5,183.6,110.2,182.8,110.2
		L182.8,110.2z M189.2,120.3l-2.7-2.5c-0.2-0.2-5.5-4.3-5.4-5.7c0.1-1.4,1.5-2.1,1.6-2.1l0,0c0,0,0,0,0.1,0c0.8,0,2.1,1.2,3.6,2.6
		c0.3,0.3,0.6,0.6,1,0.9l1.7-5.6c0,0,0.8-0.8,1.9-0.8c1,0,2,0.7,2.8,2.2l0,0l0,0.1l-3.6,7.2L189.2,120.3z"/>
	<path id="XMLID_8_" class="st28" d="M184.1,117.3c0,0-4.5-3.5-2.5-5.7c0,0,1.2-1.8,4.5,3.3c0,0,4.7,4.6,2.9,5.5
		C189,120.5,187.5,121.9,184.1,117.3"/>
	<path id="XMLID_7_" class="st29" d="M182.8,74.3c0,0,1.9-3.9,6.6,1.1c0,0,0.7,1.1,0.9,2.2c0.2,1.1,2.5,2.7,3.9,2.8
		c1.4,0.2,5.9-6.7,5.9-6.7l-0.8-3.7c0,0-3.1,0.3-5.5-1l0.6,2.1C194.4,71.1,183.3,70,182.8,74.3"/>
	<path id="XMLID_6_" class="st29" d="M201.5,70.1c0,0,3.8,0.9,6.8-1.1c0,0-0.7,3-1.2,2.9c-0.5-0.1,9.2-0.3,11.7,5.8
		c0,0-13.2-2.1-19.7,5.1c-0.7-0.9-1.3-3.7,0.7-9.1C200.3,72.6,200.9,71.5,201.5,70.1"/>
</g>
<polygon id="XMLID_3_" class="st18" points="199.9,73.7 198.1,74.5 196.3,75.3 196.5,73.3 196.7,71.4 198.3,72.6 "/>
<polygon id="XMLID_2_" class="st18" points="199.9,73.7 201.7,73 203.5,72.2 203.2,74.1 203,76.1 201.4,74.9 "/>
<rect id="XMLID_148_" x="328.8" y="76.9" transform="matrix(-0.6351 0.7724 -0.7724 -0.6351 607.8304 -107.6562)" class="st24" width="1.1" height="25.8"/>
<polygon id="XMLID_147_" class="st6" points="342.5,100.6 340.2,100 338,99.3 339.2,97.8 340.4,96.3 341.5,98.4 "/>
<polygon id="XMLID_146_" class="st18" points="323.6,84.4 321,82.2 321.1,79.5 323.8,81.8 "/>
<polygon id="XMLID_145_" class="st18" points="317.7,83.6 320.3,85.8 323,85.2 320.2,82.9 "/>
<g id="XMLID_141_">
	<defs>
		<rect id="XMLID_142_" x="317.7" y="27.2" width="186" height="98.5"/>
	</defs>
	<clipPath id="XMLID_194_">
		<use xlink:href="#XMLID_142_"  style="overflow:visible;"/>
	</clipPath>
	<path id="XMLID_144_" class="st30" d="M347.7,72c0.5-0.1,0.8-0.1,0.8-0.1l-0.7-0.8c0,0,0.4-1.5,0.3-2.9h0c-0.1-1-0.5-1.9-1.6-2.1
		c2.9,0,8.5-0.1,8.5-0.1v1.9c0,0-0.1,0.3-0.1,0.8c0,0.5,0,1.1,0.1,1.9c0.3,1.7,4.5,2.4,5,6.2L347.7,78V72z"/>
	<path id="XMLID_143_" class="st31" d="M349,72.7c0,0,4.8,1.3,6.6-0.4l0.4,4.8l-4.8,1.3L349,72.7z"/>
</g>
<polygon id="XMLID_140_" class="st24" points="351.5,95.1 349,120.3 345.9,120.5 343.9,96.6 "/>
<g id="XMLID_134_">
	<defs>
		<rect id="XMLID_135_" x="317.7" y="27.2" width="186" height="98.5"/>
	</defs>
	<clipPath id="XMLID_195_">
		<use xlink:href="#XMLID_135_"  style="overflow:visible;"/>
	</clipPath>
	<path id="XMLID_139_" class="st32" d="M344.9,122.5l0.7-3.3L345,111c3.4-1.1,5.1,0.6,5.1,0.6l-0.7,6c0.7,2.4,2.4,6.1,1.3,6.7
		c0,0-0.9,0.7-2.2,0.9c-0.6,0.1-2.2-0.2-3-0.8C344.6,123.7,344.9,122.5,344.9,122.5"/>
	<path id="XMLID_138_" class="st33" d="M377.2,75.5c0,0-12.7-3.1-16.7-4.3c-3.8-1.1-5,5.5-5,5.5l6.5-0.9c0,0,13.8,3.4,15.7,2.1
		C379.7,76.6,377.2,75.5,377.2,75.5"/>
	<path id="XMLID_137_" class="st34" d="M376,76.8c0,1,0.6,1.7,1.3,1.7h2.6c0.7,0,1.3-0.8,1.3-1.7c0-1-0.6-1.7-1.3-1.7h-2.6
		C376.6,75,376,75.8,376,76.8"/>
	<path id="XMLID_136_" class="st35" d="M370.4,54.5c0,0-1.3,4.6-4.6,6.1c-3.3,1.6,0-6.5,0-6.5L370.4,54.5z"/>
</g>
<polygon id="XMLID_133_" class="st24" points="360.5,95.1 367.4,117.3 364.4,118.8 353.7,97.3 "/>
<g id="XMLID_106_">
	<defs>
		<rect id="XMLID_107_" x="317.7" y="27.2" width="186" height="98.5"/>
	</defs>
	<clipPath id="XMLID_196_">
		<use xlink:href="#XMLID_107_"  style="overflow:visible;"/>
	</clipPath>
	<path id="XMLID_132_" class="st36" d="M340.7,75.7c1.3-1.5,3.1-2.4,4.6-3v5.6l-1.8,0.2c0,0-7.8,10.1-10.2,11.5c0,0-0.1,0-0.1,0.1
		c0,0-0.7-1.3-1.4-1.6c-0.1-0.1-0.3-0.1-0.4,0c-0.1,0-0.2,0-0.3,0.1c0,0,0-0.1,0.1-0.1C332,87.2,338.1,78.7,340.7,75.7"/>
	<path id="XMLID_131_" class="st36" d="M345.5,65.9c0.4,0,0.7,0,1,0.1C344.9,66,344.1,65.9,345.5,65.9"/>
	<path id="XMLID_130_" class="st37" d="M369.2,51.7c0,0-2.4,6-2.6,8.6c-0.2,2.6-0.3,9.2-14,8.3c-13.8-0.9-12.7-3.9-13-4.7
		c-0.3-0.8,0.4-18.3,2.3-19c1.9-0.8,25.1-4.3,25.1-4.3L369.2,51.7z"/>
	<path id="XMLID_129_" class="st38" d="M364.1,47.1c0,0-2.6-1-3.1,0.1c0,0-3.2-2.9-5.4-0.2c-2.3,2.7-4.2-5.1-4.2-5.1l8.4-2.4
		l5.4,1.6L364.1,47.1z"/>
	<path id="XMLID_128_" class="st39" d="M361,46.5c0,0-2-6.4-3.5-1.9c0,0,1.1,7.1-0.5,9.3c-1.6,2.2-2.8,2.1-4.3,2.4
		c0,0,2.5-1.6,1.8-7.7c0,0-2.2,7.4-7.2,7c0,0,2.2-0.1,2.9-6.4c0,0,0.5,0.4-4.6,6.3c-1,1.2-3.2,1.9-2,6.6c0,0-4.4-1.1-5.4-5.6
		c-1-4.5,1.7-15.5,8-16.7C352.3,38.7,361.6,35.7,361,46.5"/>
	<path id="XMLID_127_" class="st39" d="M359.4,37.3c0,0,6.1-0.9,9.3,3.2c0,0,0.7,1.6,0.5,3.6c0,0,0.2,4.2,2.3,6
		c2.1,1.8,5.6,9.7-3.8,11.4c0,0,3.5-2.6-0.4-8.6c0,0-1.1-1.2-2.5-2.6c-1.3-1.4-2.4-6.4-0.8-7.9c0,0-3,2-3,4.9c0,0-0.3-13.9-9-5.7
		v-4.7L359.4,37.3z"/>
	<path id="XMLID_126_" class="st37" d="M329.8,93.1c0.8,0.5,1.8,0.3,2.1-0.3l1.3-2.2c0.4-0.6,0-1.5-0.9-2c-0.8-0.5-1.8-0.3-2.1,0.3
		l-1.3,2.2C328.6,91.8,328.9,92.7,329.8,93.1"/>
	<path id="XMLID_125_" class="st36" d="M361.2,56.8c0,0.9,0.8,1.7,1.7,1.7c0.9,0,1.7-0.8,1.7-1.7c0-0.9-0.8-1.7-1.7-1.7
		C362,55.2,361.2,55.9,361.2,56.8"/>
	<path id="XMLID_124_" class="st36" d="M347.9,56.8c0,0.9,0.8,1.7,1.7,1.7s1.7-0.8,1.7-1.7c0-0.9-0.8-1.7-1.7-1.7
		S347.9,55.9,347.9,56.8"/>
	<path id="XMLID_123_" class="st36" d="M356.3,64.9L356.3,64.9c1.9,0,3.2-1.9,3.3-2l-0.8-0.6c0,0-1.1,1.5-2.5,1.5h0
		c-0.8,0-1.6-0.5-2.3-1.5l-0.8,0.6C354.1,64.2,355.1,64.9,356.3,64.9"/>
	<path id="XMLID_122_" class="st40" d="M364.7,121.2l2.7-2.4c0,0,5.6-4.4,5.5-5.8c-0.1-1.4-1.6-2.1-1.6-2.1
		c-0.9-0.1-2.8,1.9-4.8,3.7l-1.8-5.8c0,0-2.4-2.5-4.6,1.4l3.7,7.4L364.7,121.2z"/>
	<path id="XMLID_119_" class="st40" d="M372.8,113c0.1,1.1-3.9,4.5-5.5,5.7l-2.5,2.3l-0.2-0.6v0L364,118l-0.1-0.5l-3.7-7.4
		c0.8-1.4,1.7-2.1,2.7-2.1c0.9,0,1.6,0.7,1.8,0.8l1.9,6l0.1-0.1l0,0c0.4-0.3,0.7-0.7,1.1-1c1.4-1.4,2.8-2.6,3.5-2.6h0
		c0.1,0.1,1.2,0.6,1.4,1.6C372.7,112.8,372.8,112.9,372.8,113 M371.3,110.9L371.3,110.9l-0.1,0c-0.8,0-2.1,1.2-3.7,2.7
		c-0.3,0.3-0.7,0.6-1,0.9l-1.8-5.7c0,0,0,0-0.1-0.1c-0.2-0.2-0.9-0.8-1.8-0.8c-1,0-2,0.7-2.8,2.2c0,0,0,0,0,0.1l0,0.1l0,0l3.7,7.4
		l0.8,3.3v0l0.1,0.4l0,0.2l0,0l2.7-2.5c0.2-0.2,5.2-4.1,5.5-5.7v0c0-0.1,0-0.1,0-0.2C372.9,111.6,371.4,110.9,371.3,110.9"/>
	<path id="XMLID_118_" class="st41" d="M370,118.4c0,0,4.6-3.6,2.6-5.9c0,0-1.2-1.9-4.6,3.4c0,0-4.9,4.7-3,5.7
		C364.9,121.6,366.4,123,370,118.4"/>
	<path id="XMLID_117_" class="st39" d="M342.4,66.8c0,0-11.5-5.7-8.4-17.6c4.5-17.3,25.5-11.9,25.5-11.9L346,46.1l-4.8,15
		L342.4,66.8z"/>
	<path id="XMLID_116_" class="st37" d="M340.2,57.3c0,0-3.6-5.4-3,1.1c0,0,0.8,4.3,4,2.8L340.2,57.3z"/>
	<path id="XMLID_115_" class="st40" d="M342.6,33.2c0,0,4.9-8.5,17,5.6c0,0,0.5,2-4.6,0.5C350,37.7,342.6,33.2,342.6,33.2"/>
	<path id="XMLID_114_" class="st41" d="M357.6,38.1c0,0-11.5-7.5-21.4-8.9c0,0-5.9-2.1-3.8,3.9c2.1,6,1.5,5.8,1.5,5.8
		s7,0.8,12.2,0.4C351.3,38.8,356.7,38.7,357.6,38.1"/>
	<path id="XMLID_113_" class="st40" d="M358.7,39.8c0,0-4-2.8-8.9-3c-4.9-0.2-12,2.4-13.8,2.1c-1.8-0.3-4.3-1-4.1-2.3
		c0,0-0.9,3.2,4,7.5C335.9,44.2,351.7,38.8,358.7,39.8"/>
	<path id="XMLID_112_" class="st42" d="M343.5,37.7c0,0-14-7.9-24.8,2.2C318.6,39.9,340.1,39.7,343.5,37.7"/>
	<path id="XMLID_111_" class="st40" d="M344.9,71.5l-1-2.9c0,0,4.4,2,7.3,1.3c0.2,0-1.1,4.9,1.9,6.8c0,0,1.2-2.3,0-7.1
		c0,0,1.3,0.5,4.1-0.4c0,0,0.6,1.5,0.4,2.3c0.3-0.2,2.5-1.9,10.5,1.1c0,0,0.7,6.1-3.3,6.9c0,0-1.1-0.1-3.6-1.2c0,0-2.2,6.2-1.1,8.8
		c1.4,3.4,3.3,9.3,3.3,9.3s-13,3.5-20.6,0.8c0,0-0.9-5.4,0-8.9c0.9-3.5,0.4-5.5,0.8-7.7c0.4-1.9-2.1,3.3-2.1,3.3s-5.2-1.1-6.1-4.7
		c0,0,3.1-4.1,4.7-5.7C341.7,71.8,344.1,71.1,344.9,71.5"/>
	<path id="XMLID_110_" class="st41" d="M347.3,111.2l-0.9,1.8c0,0-0.9-0.2-1.6,0.4c-0.7,0.6-0.5-2.5-0.5-2.5s1.2-1,3.4-1
		c1.4,0,2.3,0.3,2.9,1.2c0.5,1,0,1.9,0,1.9s-1.6-0.5-2.6-0.1C348,112.9,348.3,111.3,347.3,111.2"/>
	<path id="XMLID_109_" class="st41" d="M363.6,108.2c0,0-0.2,0.1,0.3,1c0.5,0.9-2.9,0.7-3.6,2.4c0,0-0.6-0.8-0.7-1.5
		c-0.1-0.7,1.3-2,2.9-2.3c1.5-0.3,1.9-0.3,2.1-0.2c0,0,1,1.3,1,1.6c0,0.3-0.8,0.1-0.8,0.1L363.6,108.2z"/>
	<path id="XMLID_108_" class="st36" d="M343.3,85c0,0,10.5,2,16.5,0c0,0,0.2,1.8,0.3,2.1c0.1,0.3-11.9,2.1-17-0.5
		C343.1,86.6,342.9,85.9,343.3,85"/>
</g>
<rect id="XMLID_105_" x="366.5" y="55.3" class="st6" width="0.5" height="41.7"/>
<g id="XMLID_79_">
	<defs>
		<rect id="XMLID_80_" x="317.7" y="27.2" width="186" height="98.5"/>
	</defs>
	<clipPath id="XMLID_197_">
		<use xlink:href="#XMLID_80_"  style="overflow:visible;"/>
	</clipPath>
	<path id="XMLID_104_" class="st43" d="M381.3,82.8c-1.2,2-5.2,5-5.9,5.6c-0.8,0.6-7.3,5.9-7,8.5c0.4,2.5,1.8,0.4,3.3,2.7l-0.5,1.2
		h-1.9c0,0-3-0.9-3-3.9c0-3,3.9-7.3,3.9-7.3s5.3-4.3,6.6-5.9c1.3-1.6,1.3-4.6,1.3-4.6v-4.6c0,0,0-3-1.3-4.6
		c-1.3-1.6-6.6-5.9-6.6-5.9s-3.9-4.3-3.9-7.3c0-3,3-3.9,3-3.9h1.9l0.5,1.2c-1.4,2.4-2.9,0.2-3.3,2.7c-0.4,2.5,6.2,7.9,7,8.5
		c0.8,0.6,4.7,3.6,5.9,5.6c1.2,2,0.9,2.7,0,2.8c-0.9,0.1-1.1,1-1.1,1v4.6c0,0,0.2,0.8,1.1,1C382.1,80.2,382.5,80.8,381.3,82.8"/>
	<path id="XMLID_103_" class="st44" d="M480,111.8l1.3,9.2c0,0,2.5,1.9,3.3-1.8c0.8-3.8,1-8.6,1-8.6L480,111.8z"/>
	<path id="XMLID_102_" class="st44" d="M481.7,116.8c0,0-5,8.2,0,8.8c5,0.6,5-1.1,5-2c0-0.9-1.8-6.6-2.3-6.7
		C483.8,116.7,481.7,116.8,481.7,116.8"/>
	<path id="XMLID_101_" class="st44" d="M483.8,33.2c0,0,6.2-7.9,12.5,0c6.3,7.9-6.4,39,7.5,36.6c0,0-9.3,4.5-10-4.3
		c0,0-1.2,5.2,1.8,6.3c0,0-7.8,0.2-6.9-19.7l0.6-8.4L483.8,33.2z"/>
	<path id="XMLID_100_" class="st45" d="M482.6,27.5c0,0,2.2-0.6,3.6,0c1.4,0.6,0,4.8,0,4.8L482.6,27.5z"/>
	<path id="XMLID_99_" class="st45" d="M494.3,28.9c0,0-1.2-1.8-3.6-1.4c-2.1,0.3-5.4,4.7-5.4,4.7L494.3,28.9z"/>
	<path id="XMLID_98_" class="st46" d="M464.1,73.7c0,0-1.4,5.8-4.3,11.5c-2.8,5.7,0,4.8,0,4.8s2.4-2.5,4.8-6
		c2.4-3.4,4.2-8.3,4.2-8.3L464.1,73.7z"/>
	<path id="XMLID_97_" class="st47" d="M478.5,64.7c0,0-0.9,2.6,1.2,4.1c2.1,1.5-4.2,5.4-4.2,5.4l-4.4-0.8l-1.8-3.9h2.5
		c0,0,1.3-1.6,0.9-4.7c-0.5-3.2,4.2-1,4.2-1L478.5,64.7z"/>
	<path id="XMLID_96_" class="st44" d="M471.1,108.9l0.5,11.4c0,0-7.7,2.7-11.5,1.2c0,0-1.3-0.9,0-1.8c1.3-0.9,6.8-3.5,6.8-3.5
		s-0.5-0.9-0.5-4.5L471.1,108.9z"/>
	<path id="XMLID_95_" class="st48" d="M463.6,93.4c0,0,1.6,12.8,2.7,17.8c0.8,3.8,4.8,0.9,4.8,0.9s0.5-4.3,0.3-5.8
		c0,0,0.8-2.5,2.8-4.5c0,0,2.9,2.5,3.5,3.8c0.6,1.3,1.4,5.4,2.3,6.3c1,0.9,2-1,3.5-1.6c1.5-0.6,0.8-0.5,2-8.8c0.7-5.1-3.2-8-3.2-8
		l-10.2,0.2L463.6,93.4z"/>
	<path id="XMLID_94_" class="st49" d="M462.4,46.6c0,0-3.3,14.7,4.4,17.2c7.6,2.5,10.6,3.4,20.1-0.4c0,0,6.4-4.5,4.5-14.6
		c-1.4-7-14.2-12.4-14.2-12.4l-9.5,4.6L462.4,46.6z"/>
	<path id="XMLID_93_" class="st44" d="M482.1,67.3c0,0,2.6,0.2,3.9,2c1.3,1.7,2.7,5.8,2.7,5.8l-5.5,19.3l-0.5,9.3
		c0,0-13.2,4.1-17.7-2.9c-0.7-1.1,0.4-12.7,1.4-14.1l0.9-1l1-2c0,0-1.1-0.6-1.1-1.4c0-0.8,0.6-5.4,0.6-6.4c0-1.1-5.3-2.3-5.3-2.3
		s1.9-6,5-6c1.5,0,3.6-0.1,3.6-0.1l4.1,5.3l3.6-3.7L482.1,67.3z"/>
	<path id="XMLID_92_" class="st44" d="M479.1,54.1c0,0.9,0.8,1.7,1.7,1.7c0.9,0,1.7-0.8,1.7-1.7c0-0.9-0.8-1.7-1.7-1.7
		C479.9,52.4,479.1,53.2,479.1,54.1"/>
	<path id="XMLID_91_" class="st44" d="M465.7,54.4c0,0.9,0.8,1.7,1.7,1.7c0.9,0,1.7-0.8,1.7-1.7c0-0.9-0.8-1.7-1.7-1.7
		C466.5,52.7,465.7,53.4,465.7,54.4"/>
	<path id="XMLID_90_" class="st44" d="M474.2,62.3L474.2,62.3c2-0.1,3.3-2,3.3-2l-0.8-0.5c0,0-1.1,1.6-2.5,1.6
		c-0.8,0-1.6-0.5-2.4-1.5l-0.8,0.6C472.1,61.7,473.1,62.3,474.2,62.3"/>
	<path id="XMLID_89_" class="st44" d="M492.7,38.5c0,0,7.6,10.7,0.5,16.6l-2.6-0.8c0,0,0.2,3.5-2.3,4.6c0,0,0.5-0.4,0.4-2.8
		c0,0-0.7,2.2-2.1,2.8c0,0,1-4.1,0.3-6.1c-0.7-1.9-5.4-1.4-5.3-9.8c0,0-12.9,5.4-18.7,11.2c0,0-1.5,1.3,0,3.3c0,0-2.6,0.2-3.2-4.7
		c-0.6-5-0.9-14,7.9-18.6c8.8-4.5,17.1-5.3,19.8-1.1c0,0,1.5,1.5,1.2,2.3"/>
	<path id="XMLID_88_" class="st49" d="M490.8,54.1c0,0,3.5-5.3,2.9,1c0,0-0.7,4.2-3.9,2.7L490.8,54.1z"/>
	<path id="XMLID_87_" class="st49" d="M459.2,87.5c0.4,0.1,0.8,0.1,0.9-0.2l0.3-0.9c0.1-0.2-0.2-0.5-0.6-0.7
		c-0.4-0.1-0.8-0.1-0.9,0.2l-0.3,0.9C458.5,87.1,458.8,87.4,459.2,87.5"/>
	<path id="XMLID_86_" class="st44" d="M479,110.4c0,0,4.5,1.2,5.8-1.2c0.9-1.7,1.5,2.7,1.5,2.7s-3.2,2.9-6.8,1.4
		C479.4,113.3,478.9,112.3,479,110.4"/>
	<path id="XMLID_85_" class="st44" d="M465.9,110.2c0,0,2.4,2.1,6.3,0.4c0,0,1,2.9,0.2,3.4c-1.2,0.7-6.9,0.6-7.1-1.4
		C465.1,110.7,465.9,110.2,465.9,110.2"/>
	<path id="XMLID_84_" class="st45" d="M474.9,72.3c0,0,2.4,31.2,1.3,34.2c0,0,6,4.8,13.6-0.6c7.6-5.4,6.5-6.6,6.5-6.6
		s-6.8-25.9-9.6-28.9c0,0-1.6-4-5.8-2.4C476.7,69.6,474.9,72.3,474.9,72.3"/>
	<path id="XMLID_83_" class="st45" d="M475.6,72.3c0,0-2.4,31.2-1.3,34.2c0,0-6,4.8-13.6-0.6c-7.6-5.4-6.5-6.6-6.5-6.6
		s6.8-25.9,9.6-28.9c0,0,1.6-4,5.8-2.4C473.8,69.6,475.6,72.3,475.6,72.3"/>
	<path id="XMLID_82_" class="st44" d="M475.3,72.8c0,0,0.5-1.5,0.7-1.7c0.5-1.1,1.9-3.9,4.5-4.1c3.1-0.3,3.4,0.5,3.4,0.5l-5.6,3.9
		C478.2,71.4,477.5,70.4,475.3,72.8"/>
	<path id="XMLID_81_" class="st44" d="M475.3,72.8c0,0-0.4-1.5-0.5-1.8c-0.4-1.1-1.6-4-4.1-4.5c-3.1-0.5-3.4,0.3-3.4,0.3l5.3,4.4
		C472.6,71.2,473.3,70.3,475.3,72.8"/>
</g>
<polygon id="XMLID_78_" class="st7" points="475.3,70.1 476.2,71.9 478.1,72.1 476.7,73.5 477,75.4 475.3,74.5 473.6,75.4 
	473.9,73.5 472.5,72.1 474.5,71.9 "/>
</svg>
