<?xml version="1.0" encoding="utf-8"?>
<!-- Generator: Adobe Illustrator 19.2.1, SVG Export Plug-In . SVG Version: 6.00 Build 0)  -->
<svg version="1.1" id="Layer_1" xmlns="http://www.w3.org/2000/svg" xmlns:xlink="http://www.w3.org/1999/xlink" x="0px" y="0px"
	 viewBox="0 0 1230 60" style="enable-background:new 0 0 1230 60;" xml:space="preserve">
<style type="text/css">
	.st0{fill:#646464;}
</style>
<g>
	<g>
		<g>
			<g>
				<g>
					<path class="st0" d="M1194,33.8c0.6-0.2,0.3-0.6-1.4-0.5l-1.2,0.7L1194,33.8z"/>
					<path class="st0" d="M1182.5,32.6c-2,0.3-4.3,0.9-3,1.5c2-0.6,2.5-0.4,4.6-1.1c1.7-0.1,3,0.2,2.7,0.5c0.6-0.2,2.7,0.1,3.6-0.3
						c-2.2-0.5-5-0.5-8-0.1C1181.8,32.9,1182.4,32.7,1182.5,32.6z"/>
					<path class="st0" d="M1015.8,31.6l1.1,0.1C1016.5,31.6,1016.2,31.6,1015.8,31.6z"/>
					<path class="st0" d="M912.4,31.2c0.8,0,1.1-0.1,1.2-0.1C912.8,31.1,912.2,31.2,912.4,31.2z"/>
					<path class="st0" d="M894.8,30.5c0.4,0,0.7,0,1,0C895.4,30.5,895,30.4,894.8,30.5z"/>
					<path class="st0" d="M1015.8,31.6l-2.8-0.2C1012.8,31.6,1014.4,31.5,1015.8,31.6z"/>
					<path class="st0" d="M1159.5,34.2c0.6,0,1.1-0.1,1.5-0.2c-0.5,0-0.9,0.1-1.4,0.1C1159.6,34.1,1159.6,34.2,1159.5,34.2z"/>
					<path class="st0" d="M1061.3,31l0.8,0c0.2-0.1,0.5-0.2,0.7-0.3L1061.3,31z"/>
					<path class="st0" d="M1096.3,30.9c-0.8,0-1.1,0.5-1.4,0.8c0.4-0.2,1-0.3,1.7-0.4C1096.6,31.2,1096.5,31.1,1096.3,30.9z"/>
					<path class="st0" d="M1151.7,31.9l1-0.1C1152.4,31.9,1152,31.9,1151.7,31.9z"/>
					<path class="st0" d="M1036.3,30.9c-0.1-0.1-0.2-0.2-0.3-0.2C1036,30.8,1036.1,30.9,1036.3,30.9z"/>
					<path class="st0" d="M58.5,35.1c0,0,0-0.1,0-0.1C58.3,35.1,58.3,35.1,58.5,35.1z"/>
					<path class="st0" d="M18,32.4l0.6,0c0.1-0.1,0.1-0.2,0.1-0.3L18,32.4z"/>
					<path class="st0" d="M862.5,29.8c0.1,0,0.1,0,0.1,0C863.5,29.7,863,29.7,862.5,29.8z"/>
					<path class="st0" d="M566.1,30.2c3.4,0.5-5.5,0.6-0.4,1.2C565.2,31.2,570.3,30.5,566.1,30.2z"/>
					<path class="st0" d="M1158.6,34.1c-0.5,0-1,0-1.4,0C1157.8,34.2,1158.3,34.2,1158.6,34.1z"/>
					<path class="st0" d="M565.7,31.4C565.7,31.4,565.7,31.4,565.7,31.4l0.5,0.1C566,31.4,565.9,31.4,565.7,31.4z"/>
					<path class="st0" d="M788.1,30.1c0.2,0.1,0.4,0.2,0.8,0.2C788.8,30.3,788.7,30.2,788.1,30.1z"/>
					<path class="st0" d="M843.5,30.9l-1.4-0.1C842.7,30.9,843.1,30.9,843.5,30.9z"/>
					<path class="st0" d="M759.3,30.9c-0.7,0-1-0.1-2,0c0.1,0,0.2,0,0.3,0.1C758,30.8,758.5,30.8,759.3,30.9z"/>
					<path class="st0" d="M729.4,30.9c0.2,0,0.4,0.1,0.6,0.1c0.3,0,0.6,0,0.9,0L729.4,30.9z"/>
					<path class="st0" d="M149.5,34.9c-0.7-0.2-1.1-0.3-1.4-0.5C148.6,34.8,144.2,34.9,149.5,34.9z"/>
					<path class="st0" d="M1159.5,33.9c-0.2,0.1-0.4,0.2-0.9,0.2c0.3,0,0.7,0,1,0C1159.7,34,1159.7,33.9,1159.5,33.9z"/>
					<path class="st0" d="M758.1,35.3l-4.8-0.1C754.7,35.3,756.4,35.3,758.1,35.3z"/>
					<path class="st0" d="M364.4,34.8l-1.1,0.1C363.7,34.9,364.1,34.9,364.4,34.8z"/>
					<path class="st0" d="M739.2,35.3c-0.8-0.2-1.7-0.3-2.7-0.4c-0.2,0-0.4,0.1-0.6,0.1L739.2,35.3z"/>
					<path class="st0" d="M148.2,34.4C148.2,34.4,148.2,34.4,148.2,34.4C148.2,34.4,148.2,34.4,148.2,34.4z"/>
					<path class="st0" d="M116.8,35.7c4.5,0,2.1-0.7,3.1-1.1c5.4-0.2,2.5,0.5,4.3,0.9c3.4-0.2,6-0.9,8.5-0.8
						c0.2,0.1,0.7,0.2,0.1,0.3c3.6-0.6,10.6,0,14.8-0.8c0.3,0.1,0.5,0.1,0.5,0.2c-0.7-0.4-0.8-0.7-0.6-1c2,0,3.8-0.5,4.5,0
						c-1.2,0-1.3,0.2-1.9,0.3l2.1-0.2c1.9,0.7-2.9,0.2-2.9,0.8c4.2-0.2,9-0.8,12.2-0.6c0.7,0.7-7.4,0.2-3.2,0.8l-4.9-0.3
						c3.8,1.1-3-0.1,0.5,1.1c6.5,0.2,7.2-0.3,13.7-0.1c1.5-0.4-0.5-0.6,1-0.9c9.2-0.7,7.2,1.7,14,0.8c1.7-0.5,2.4-1.3,7.2-0.9
						l-1.6,0.8c6.3,0.1,3.6-1.1,10.2-0.6c-1.2,0.3-4.9,0.3-4,0.3c4.3,0.6,3-0.4,6.3-0.4l0.7,0.7c6.7-0.1,14-0.6,21.4-0.7
						c-0.4,0.2-1.7,0.4,0.1,0.6c9.3-0.3,19.9,0.1,28.9,0.5l3.4-0.6c0.8,0,1.5,0.3,0.6,0.4c3.5,0.2,0.2-0.4,1.9-0.6
						c2,0,2.6,0.3,1.4,0.5c6.2-0.5,17.6-1.1,24.2-0.4l-1.3,0.2c5.1,0.2,5.7-1.2,10.4-0.7l-0.9,0.1c11,0.3,23.2-0.3,31.6,0.6
						c1.6-0.8,10.9,0.4,11.6-0.8c6.3,0.6,4.5,0.8,13.4,1.2c2.4,0.1,3.5-0.7,6.5-0.9l0.1,0.6l4-0.6l2.1,0.7l2.7-0.2
						c-1.1,0-2.3-0.3-2.2-0.5c4.3-0.3,10.5,0.4,10.6,0.7l10.1-0.5c-0.2,0.2-1.9,0.3-3.3,0.5c5.4-0.6,1,0.6,5.9,0.1
						c-0.7-0.1,0.4-0.4,0.5-0.5c2.5,0.4,8.1,0.4,12.3,0.2l-0.8,0.4c7.5,0.1,15.9-0.2,24.3-0.2c-3-0.2-2.3-0.9,0.1-1l1,0.7
						c1.6-0.4-2.6-0.2,0.7-0.7c3.2,0.1,2.1,0.7,0.3,1l3.8-0.2c0.2,0.2-0.7,0.3-0.9,0.5c1.6-0.4,6.6,0.7,8.9,0l0.2,0.2
						c8.4,0,12.3-0.2,19.1-0.3c0.1-0.6,2.8-0.4,4.9-0.9c5.1,0.2,10.7,0.6,16.8,0.6c4.3-0.3,1.2-0.5,3.2-0.8c0.3,0.5,6.4,0.5,3.2,0.8
						c7.3-0.1,9.3-0.1,18.6-0.5c-1-0.2-2.1-0.3-1.5-0.5c1.7-0.1,3.8,0.2,3.6,0.5l-0.4,0.1c10.4-0.8,23.9,1.5,32.2,0.4l-0.5,0.1
						l8.6-0.6c3.9,0.1-2.4,0.4,0.6,0.7c9.2-0.9,14.6,0.1,22.2-0.4c5.9,1.5,20.9-0.1,28.9,0.9l-0.5-0.4c2.1-0.3,2.5,0.2,4,0.3
						c-0.2-0.3-2.2-0.3-1-0.5c17.4-0.4,35.9,0.5,53.8,0.8c6.5,0.1,3.7-1.8,11.9-1l-2.3,0.7c13.2-0.8,26.9,0,39.8-0.6
						c-0.8,0.2-0.8,0.4-2,0.3c2.7,0.5,10.1,0,10.1-0.4c2,0,0.5,0.4,1.7,0.6c2.7,0.3,6.9-0.6,8.3-0.1c0.2,0.1-0.8,0.2-1.3,0.2
						c1.8-0.2,8.3,0.1,6.6-0.5c4.8,0.3,9.3-0.2,13.1,0.1c2.5-0.6,8.3,0.3,9.1-0.6c-0.3,0.9,8.5,0.7,11.5,0.3c-1,0.3,2.7,0.3,1.5,0.7
						c3.5,0,6.7-0.2,6.1-0.6c6.4,1.1,12.9-0.9,16.6,0.5c10.4-0.5,20-0.8,29.3-1c-0.3,0.9-10.3,0.1-9.9,1c8.9-0.4,14-1.1,22.7-0.9
						c2.3,0.1-1.3,0.4-2.1,0.5c8.8-0.4,17.1,0.1,25-0.4c0,0.1-0.9,0.2-1.7,0.2c1.6,0,3.6,0.1,3.4-0.3l-1.5,0.1
						c-2.5-0.6,6.2-1.2,6.4-1.6c-2.6,1.2,7.8,0.3,3.6,1.8c1-0.1,2.3-0.3,2.1-0.5c1.5,0.1,2,0.2,0.5,0.6c5.6-0.2,3.6-0.7,8.6-0.7
						c0,0.2-1,0.3-1.6,0.5c2.5-0.4,5.1-0.8,9.4-0.6c-0.3,0.1,0.2,0.3-1,0.3c7.3-0.1,12.5-1,20.5-0.7c-2.4,0.9,2.7,0.3,3.2,1l4.3-0.2
						l-1.7-0.4c3.8,0,7.1-0.5,10.4-0.3l-2.8,0.3l7.1-0.1l-4-0.3c3.8-0.4-0.4-0.9,4.6-0.7c-1,0.1,3.8,0,5.7,0.4c0,0,0,0,0,0
						c1.9-0.2,3.8-0.5,6.6-0.3c0.7,0.2-0.6,0.8-0.1,1c1.8-0.6,8.8-0.2,11.2-0.8c-0.8,0.2-0.8,0.5-0.6,0.6l1.5-0.5
						c1.7,0.2,2,0.2,1.7,0.6c5.3,0.1-1.7-0.9,4.6-0.5c-0.5,0-0.3,0.1-1.3,0.2c6.3,0.2,12.1-0.3,17.9-0.1c1.7,0.8-5,0.2-3.1,0.8
						c8.3-0.1,17.2-0.9,25.2-0.7l-1.5-0.1c1.1-1.1,6,0.5,10.1,0c-1,0.1-1.3,0.6-1,0.5c5.5,0.2,11.3-0.3,19.6-0.6l-1,0.3
						c3.2,0.2,8.5,0.1,12,0.3c1-0.3,3-0.2,1.8-0.6c10.8,1.6,20.6-0.8,30.2,0.5c-1.1,0-2.7,0.2-1.8,0.2l8.2-0.3
						c-0.6-0.5-1.1-0.3-2.8-0.6c1-0.3,3.3-0.5,5.4-0.5c-3.7,0.3,0,0.7,1.6,1c-0.3-0.1,0.3-0.3,0.1-0.4c4.3,0.8,0.7-0.9,6.5-0.4
						l-0.3,0.2c2.2-0.1,4.2-0.4,6.5-0.4c1,0.5-2.3,0.2-2.5,0.7c3.3,0,6.5-1,9.5-0.5c-1.4,0.1-3.4,0.2-4.8,0.3c3.3,0.6,3.6,0.5,6,0.6
						l-0.2,0l5.6,0.3l-1.4-0.2c4.1-1.4,8.4-0.3,14-1.2c-5.4,0.9-0.9,0.5-1.3,1.1c1.4,0.2,3.6,0.4,3,0.5c2.6-0.5,4.4,0.4,8.1-0.3
						c0.2,0.2,2.8,0,2.2,0.5c3.4-0.2-0.8-0.3-0.5-0.6c5.3-0.7,12.4,0.8,20-0.1c6.5-0.4,7.7-1,13.8-1.4c2,0.3-1.7,0.7-1.7,0.7
						c3.3,0.3,5.8,0.2,8.9,0c-0.6,0.2,0,0.3,1,0.5c2.5-0.1,1.7-0.7,5-0.4c-0.6,0.2-1.3,0.6-2.5,0.8c2.9-0.2,5.9-0.5,8.9-0.7
						c0.8,0.3-1.8,0.5-2.9,0.7c3.4-0.2,8.9-0.3,9.9-0.8l-2.2-0.2c1.2,0,0.6,0.5-0.3,0.6c-2.9,0.4-4.2-0.2-4.4-0.4l2.2-0.1
						c-2.2-1.1-8.7,0.2-13.1,0.1l1.8-0.8l-4.5,0.7c-1-0.2-1.6-0.7,0.6-0.8c-3.1-0.4-2.8,0.3-5.5-0.2c-0.3-0.1-0.2-0.1,0.1-0.1
						l-3.1,0.2c0.6-0.2-0.5-0.6,1.4-0.5c-5.5-0.5-8.9,0.6-10.9,0l0.5-0.1c-7.6,0.3-0.7,0.6-6.5,1.3l-3.8-1.5l-0.7,0.6
						c-0.8,0-2.3-0.1-2.1-0.3c-2.9,0.4,0.5,0.3-1.2,0.7c-3.8-0.6-10.4,0.3-11.3-0.7c-1.4,0.5,3.6,0.4-0.4,0.7
						c-1.2-1-4.7,0.2-8.1-0.3c1.1-0.5,4.3-0.3,0.9-0.7c-2.1,0.9-6.7-0.2-9.6,0c-0.1,0.7-6.3,0.3-11.2,0.5c0.3-0.2-9.2-0.4-13.8-0.7
						l0.1-0.1c-0.9,0.7-5.6,0.6-9,0.7c0.1-0.4,0.7-0.6,2.6-0.8l-3.2,0c-0.8,0.2-1.8,0.4-3.8,0.4l0.8-0.5c-4.3,0-8.6,0.6-14.1,0.3
						c-0.3,0.5,4.4,1.4-1.4,1.8c-0.2-0.3-0.4-0.8,1.1-0.9c-0.5,0-1.8,0.2-2.8,0.1l2.3-0.5c-2.5-0.2-1.3,0.4-3.3,0.3
						c0-0.4-1.5-0.3-1.2-0.6c0.5,0,1.7,0.2,2.5,0c-2.3-0.1-5-0.3-5.9-0.6c0.2,0.2,0,0.5-1.7,0.6c-4.3,0-1.5-0.5-4-0.7
						c-1,0.3-3.8,0-3.8,0.6c-1.3,0-1.5-0.3-2-0.4c-2.2,0.3-10.3,0.1-7.8,0.7l0.6,0c-0.1,0-0.2,0-0.4,0c0,0,0,0,0,0h0
						c-7.3,0.6-15.1-0.3-22.3-0.1l0-0.2c-4.3,0.2-9.6,0.1-12.6,0.6c-1.3,0-3-0.4-2.5-0.6c-3.3,0.1-3.7,0.4-8.4,0
						c3.3-0.3-1.1-0.3,3.4-0.3c-4.3-0.2-5.2-0.5-9.8,0.1c1.6-0.5-3.2-0.6-5.2-0.5l3,0.4c-2.3,0.1-4.3,0-6.3,0l1.1-0.7
						c-8.7-0.8-15.8,1.4-22.4,0c-2.3,0.5,4.7,0.3,2.7,0.9c-4-0.1-8.2-1-9.5-1c-5.5-0.4-5.1,1-10.9,0.7c0.7,0.2,1.4,0.9-2.9,1.1
						c-4-0.1-4.9-1-2.4-1.2c1,0,1.4,0.1,1.4,0.1c1.3-0.1,3-0.2,1.4-0.4l-0.5,0.2c-2-0.2-7.5-0.2-6.2-0.6c-3,0.2-1.3,0.4,1,0.5
						c-5.2-0.3-8.1,0-13.4-0.2c0.8,0.1,1.6,0.4,0.8,0.4c-7.8-0.3-3.4,0.5-8.7,0.6c-3-0.4,1.1-0.9-4.2-0.6c-3.2-0.2-0.7-0.6,0.6-0.8
						c-4.8,0.5-9-0.3-11.8-0.4l2.5-0.2c-1.5,0.1-2.8,0.1-4,0.1l1.5,0.5c-1.5-0.1-2.8-0.1-2.7-0.3c-1.5,0.3,1.2,0.8-1.9,1.2
						c-2-0.2-6.1,0.3-6.8-0.4c6.3,0.2-0.7-0.6,4.6-0.7c-1,0.1-2.3,0.1-3.8,0c-0.2-0.1,0.2-0.1,0.6-0.2c-6-0.6-2.8,0.7-9,0.7
						c0.8-0.4-1.4-0.7-2.5-0.6c2.5,0,1.2,0.6-1.1,0.9c-4-0.3-4.3,0.2-6.4,0.2l2.4,0.1c-0.8,0.4-2.8,0.3-5.6,0.4
						c-0.2-0.3,2.5-0.2,1.5-0.3c-3.1,0.6-7-0.6-11.3-0.2c-2-0.2-0.2-0.7-1.9-0.8c-4.8,0.5-5.2-0.5-10.3-0.1c1.5,0.5,1.7,0.4-1.9,0.8
						l8.3-0.3l-5.4,0.7c2.5,0,5.3-0.3,6.8-0.2c-2.6,0.4-2.3,0.3-1.1,0.7c-3.4-0.7-6.8,0.4-10.8-0.1l0.1-1.2
						c-6-0.5-10.6,0.6-18.4,0.3l2.5,0.2c-1,0.5-4.8,0.1-7.3,0.3c0.2-0.4-1.3-0.5-2.4-0.8c0.1,0.3-5.7,0-6.4,0.8l-3.5-0.5
						c-6.3-0.2-7.2,1.1-13.2,1c1.8-0.4-0.9-0.7,3.1-1c-2,0-3.8-0.1-3.9,0.2c-1.2-0.2-5.6,0.5-7.4,0.2c-0.8,0.2-1.1,0.6-3.4,0.6
						c-0.2-0.1,0-0.2,0-0.2c0,0.2-3.5,0.3-1.6,0.7c-6.2-1.2-17.3,0.1-22.7-1c-4.4,0.1-9.7,0.3-13.7,0.3c0.3-0.1,0-0.2,0.8-0.2
						c-5.5-0.4-3.4,1.1-9.6,0.7c-3.2-0.6,3.3-0.3,1.3-0.6c-0.9-1.3-7.6,0.2-11.8-0.6l1-0.1c-3.2-0.4-7.9,0.5-13.1,0.4
						c0,0,0.3-0.1,0-0.2c-3.6,0.7-10.4,0.9-15.5,1.1c1.6-0.5,2.3-0.3,1.3-0.8c-2.3,0.1,0.7,0.8-3.9,1c-1.5-0.3-4.7-0.5-5.2-1.1
						l4.3,0c-2.2-0.7-5.5,0-7.8-0.1l0.3-0.3c-6.6,0.1-6.6,0.9-13.7,0.8l0.7,0.2c-3.8,0.8-3.2-0.4-7.1,0.1l-1.2-0.8
						c-2.5,0.2-8.9,0.8-13.4,0.9c2.6-0.6,7.9-0.9,11.2-1.2c-2.5,0-8.6,0.1-9.9,0.4c1-0.1,2.3-0.3,3.3-0.1c-3.1,0.6-7.2,0.9-12.2,0.9
						c0.9-1.5-13.1-0.4-16.7-1.6c-8.9,0.6-17.6-0.2-27.9-0.2c3.7,1.2-3,0-2.4,1.3c-2.4,0.1-3.3,0.1-3.5,0l-7.3-0.7
						c-1.7-0.4,2.3-0.3,2.1-0.5c-5.3-0.1-2.2-0.5-5.7-0.8c0.7,0.4-1.8,0.6-4.8,0.5l4.2,0.6c-7.4,0.7-6.4-1-13.8-0.4l2.3-0.4
						c-3.8,0.2-14.1,0-17.8,1c-0.7-0.1-1.6-0.5,0.1-0.6c-9.1-0.1-20.3,1-27.3,0.4l0.7-0.3c-1.7,0.1-3,0.6-5.1,0.3
						c0.1-0.1,0.7-0.3-0.1-0.3c-0.9,0.1-4.5,0.5-6.8,0.3l1.9-0.3c-8.9-0.4-13.6,0.8-21.1,1c0-0.9-7-1.2-10.5-1.3l0.1-0.1
						c-10.3-0.1-17.6,0.7-27.1,1.1c-5.9-1-20.1-0.4-29.7-0.9c1.5,0.2-0.2,0.7-1.9,0.8c-2.2-0.2-6.2,0.6-5.8-0.2l0.8,0
						c-1.7-0.8-6.3-0.6-9.9-0.6l-0.6,1.1c-9.4-1.5-24.7,0.6-29.8-0.8c-2.3,0.3-5.1,0.3-7.3,0.5l0.1-0.6c-6.3-0.1-9.4-0.2-17.2-0.1
						l1.6-0.4c-4.4,0-5.5,1.6-9.6,1.7l-1.2-0.8c-7.7,0-15.4-0.7-23,0c0.1-0.1,0.3-0.4,1.6-0.4c-3.6,0-13.9-0.6-12.6,0.6
						c-0.1-0.8-7.9-0.1-12,0.3l0.6-0.6c-3.5,0.7-3.6,0.9-8.5,1.1c-1.2-0.1-1-0.4,0.5-0.3c-3.8-0.3-3,0.5-7.7,0.2l1.7-0.4
						c-4,0-3.6,0.1-5.8,0.6c-2.5,0.2-7.5-0.1-8.1-0.6c-0.5,0.3-2.7,0.7-5,0.6c-0.3-0.2,0.5-0.3,1-0.4c-6.6-0.4-9.8,0.6-14.4,0.1
						c-0.1-0.2-0.4-0.3-0.8-0.3c5.3,0,9.5,0,9.1,0.1c0-0.5-4.2-0.6-0.9-1.3c-3.4,0.4-9.2,1.2-13.4,1c-0.2,0-0.4-0.1-0.5-0.2l0.4-0.1
						c-1-0.1-1.8,0-2.6,0.1c-1.3-0.1-2.2-0.1-3.4-0.2c-0.5-0.4-4.9-0.2-7-0.2c0.2,0.6-2.6,0.5,0,0.9c-0.3,0,0.4-0.1,1.8-0.1
						c0.3,0,0.7,0,0.9-0.1c0,0-0.1,0-0.1,0c1.4,0,3.2,0,5.3,0c-1.7,0.3-3.4,0.5-5.8,0.2c-1.1,0.4-2.3,0.7-3,0.9
						c-2.9-0.8-8.5-1.2-9.3-1.7c-6.5,0.3-15.2,0.2-19.3,1.3c-1.8,0.1-2.1-0.3-2.8-0.5c1.1-0.1,2.3-0.1,2.9-0.2
						c-3.7,0.3-10.9,0.1-11.8,0.8c-4.6-0.3,2.6-0.7-3.8-0.6l0.9-0.2c-12.5-1.2-20.4,1.9-34.3,0.4c1,0.1,1.4,0.1,1.6,0.3
						C116,30.8,99.2,32.1,83.5,31c-4.4-0.2-4.9,0.3-7.6,0.6L75,31l-4.6,0.7c-6.6,0.5-11.4-1.5-19.7-0.5l1.1,0.4
						c-3-0.1-9.5,0.2-9-0.2c-0.3,0.1-1,0.4-2.1,0.2l-0.1-0.3l-7.3,0.5c-5.7-0.2,0.9-1.3-7.4-1.3c-3.1,0.1-8.8,0.9-7.6,1.1
						c1.2,0,3.2,0.2,3.3,0.5l-2.8,0.2c-0.5,0.9-2.7,1.9,4.2,2.5l4.8-0.6l1.6,0.5l-4.1,0c2.3,0.4,3.8,0,5.4-0.2
						c0.4,0.2,1.1,0.4,2,0.5l4.7-0.9c0.6,0.4-2.1,0.7,1.1,0.9c2.2-0.4-2.1-0.8,1.5-1.1c2.3,0.4,1.6,0.8,4.3,0.4
						c0.4,0.2-0.2,0.4-1.3,0.5c2.4-0.3,6.4-0.1,7.6-0.6c2.4,0.5,8.1-0.1,7.9,0.7c0.8-0.2,4.3-0.7,6.5-0.7c-4,1.1,8.3,0.1,7.2,1.2
						c3-0.9,10.8-0.4,16.1-0.9c-0.3,0.1-0.9,0.2-1.3,0.2c3,0.1,3.9,0.4,5.8,0.5c0.4-0.8,5-1,7.5-1.4c3.7,0.8-2.2,0.9-1.1,1.6
						c-0.2-0.6,6.4-0.6,5.1-1.2c2.8,0.5,2.4,0.2,3.9,0.9c0.5-1,2.6-0.2,4.9-0.8c4.1,0.5,1,0.9,5.5,0.6
						C120.8,35.3,116.8,35.7,116.8,35.7z M222.7,34C222.7,34,222.7,34,222.7,34c-0.9,0-1.7,0-2.2,0C221,34,221.6,34,222.7,34z
						 M231.6,34c-1.1,0-2.4,0-3.9,0c-0.3-0.2,0-0.4,0.9-0.4C228.2,33.7,230.3,33.8,231.6,34z M212.8,30.1c1.4-0.1,1.9,0,2.1,0.1
						c-0.7,0-1.4,0-2.5,0.1c0,0-0.1,0-0.2,0.1C212.4,30.3,212.5,30.2,212.8,30.1z"/>
					<path class="st0" d="M210.3,30.8c-0.2,0-0.3,0-0.6,0c0.3,0,0.6,0.1,0.8,0.1c0.2-0.1,0.3-0.1,0.5-0.2
						C210.8,30.8,210.5,30.8,210.3,30.8z"/>
					<path class="st0" d="M1017,31.7l-0.2,0c0.2,0,0.3,0,0.4,0.1C1017.1,31.7,1017.1,31.7,1017,31.7z"/>
					<polygon class="st0" points="354.5,35.1 354.5,34.9 353.7,35 					"/>
					<path class="st0" d="M1066,33.6c0.1,0,0.3,0.1,0.6,0.1C1066.6,33.7,1066.4,33.6,1066,33.6z"/>
					<path class="st0" d="M1087.2,33.7l3,0.2C1088.9,33.8,1088,33.8,1087.2,33.7z"/>
					<path class="st0" d="M1103.5,34c0.2-0.1,0.3-0.2,0.3-0.2c0,0,0,0,0,0L1103.5,34z"/>
					<path class="st0" d="M844.6,34.7c-0.2,0-0.4,0-0.6,0C842.5,34.8,843.5,34.8,844.6,34.7z"/>
					<path class="st0" d="M921.7,33.3c-0.8,0.1-1.6,0.2-2.5,0.3C920.6,33.7,921.6,33.7,921.7,33.3z"/>
					<path class="st0" d="M758.6,35.3C758.6,35.3,758.6,35.3,758.6,35.3c-0.2,0-0.3,0-0.5,0L758.6,35.3z"/>
					<path class="st0" d="M915.6,33.6c1.4,0.1,2.5,0.1,3.6,0C918.1,33.6,916.7,33.5,915.6,33.6z"/>
					<path class="st0" d="M1174,34.3l0.8,0c0,0,0-0.1,0.1-0.1L1174,34.3z"/>
					<path class="st0" d="M1174.9,34.2l0.9-0.1C1175.4,34.1,1175,34.1,1174.9,34.2z"/>
					<path class="st0" d="M1177.6,34l-1.8,0.1C1176.4,34.1,1177.2,34.1,1177.6,34z"/>
					<path class="st0" d="M1152.5,34l-0.2,0.2C1152.4,34.2,1152.5,34.1,1152.5,34z"/>
					<path class="st0" d="M1145.9,34.1c1.6,0,3.9,0.4,6.1,0.3l0.2-0.2C1151.2,34.5,1147.4,33.7,1145.9,34.1z"/>
					<path class="st0" d="M1118.6,31.5l5.5,0.2c-1-0.2-2.2-0.5,0.3-0.6C1117.5,30.5,1125.8,31.6,1118.6,31.5z"/>
					<path class="st0" d="M1101.6,31.2c2.9-0.1,0-0.3,0.1-0.4C1099.8,31,1099.4,31,1101.6,31.2z"/>
					<path class="st0" d="M978.6,31.2l0.3-0.5C976.6,30.8,978.9,30.9,978.6,31.2z"/>
					<polygon class="st0" points="955.1,33.9 957.3,34.2 958.4,33.7 					"/>
					<polygon class="st0" points="941.2,30.2 942.2,30.1 938.4,30.3 					"/>
					<path class="st0" d="M734.7,30.4l0.7,0.6C736.9,30.9,737.2,30.2,734.7,30.4z"/>
					<path class="st0" d="M645.5,31c-1-0.3-3.5-0.5-5-0.2C642.5,30.9,644.5,31.1,645.5,31z"/>
					<polygon class="st0" points="378.1,30 379.9,29.8 376.6,30 					"/>
				</g>
			</g>
		</g>
	</g>
</g>
</svg>
