<?xml version="1.0" encoding="utf-8"?>
<!-- Generator: Adobe Illustrator 19.0.0, SVG Export Plug-In . SVG Version: 6.00 Build 0)  -->
<svg version="1.1" id="Layer_1" xmlns="http://www.w3.org/2000/svg" xmlns:xlink="http://www.w3.org/1999/xlink" x="0px" y="0px"
	 viewBox="0 0 321 308.7" style="enable-background:new 0 0 321 308.7;" xml:space="preserve">
<style type="text/css">
	.st0{fill:#FFFFFF;}
	.st1{fill:#7A2F2F;}
</style>
<path id="XMLID_15_" class="st0" d="M21.3,12c0,0,248.7-10,268.7,0s17,28.7,17,28.7l0.2,241L293,299l-271.7-7L13,281.7L21.3,12z"/>
<path id="XMLID_46_" class="st1" d="M176,4.9c-0.4-0.2-0.9-0.4-1.5-0.7c11.3-1.3,22.3-0.5,33.3-0.7c7.4-0.1,14.8-0.7,22.2-0.7
	c17.9-0.2,35.9-0.3,53.8-0.3c6.6,0,13.3,0,19.9,0.1c1.3,0,2.8,0,4,0.6c1.2,0.5,2.4,1.5,3.1,2.6c2.8,4.6,3.5,9.6,3.6,15
	c0.8,56.9,1.7,113.8,2.8,170.7c0.5,26.8,1.8,53.7,2.7,80.5c0.1,1.6,0.4,3.3,0.7,4.9c1.2,6.1-0.4,11.1-5.4,15c-0.6,0.4-1,1.3-1.1,2
	c-1.1,6-5.2,9.7-11.3,9.9c-2.2,0.1-4.3-0.2-6.5-0.3c-11-0.1-22.1-0.3-33.1-0.3c-38.4,0-76.7,0.3-115.1,0.1
	c-37.5-0.2-74.9-1-112.4-1.5c-3.9-0.1-7.9,0-11.8,0c-1.2,0-2,0.4-2.6,1.4c-3.1,4.8-8.5,6.6-13.7,4.8c-5-1.8-8.1-6.6-7.6-12.3
	c0.4-4.2,1.2-8.3,1.6-12.4c1.7-16.9,1.9-33.8,2.1-50.7c0.4-41.6,0.8-83.3,1.3-124.9C5.4,82.5,6,57.2,6.4,31.9c0.1-4.3,0-8.7,0-13
	c0-1.2-0.3-2.1-1.2-2.9c-2.5-2.4-3.4-5.5-2.4-8.9C3.7,3.7,6,1.5,9.5,0.7c2.8-0.7,5.6-1.1,8.4,0.2c1,0.4,2.2,0.4,3.3,0.5
	c17.1,1.4,34.3,1.2,51.5,1.3c11.5,0.1,23.1,0.1,34.6,0.2c11.3,0,22.6,0.3,33.9,0.7c11.4,0.4,22.7,1,34.1,1.5
	C175.5,4.9,175.7,4.9,176,4.9z M34.3,277.8c0.7,0.1,1.2,0.1,1.6,0.1c10.8,0.3,21.5,0.6,32.3,1c58,1.8,116,3.1,174,2.7
	c17.5-0.1,35-0.4,52.6-0.6c2,0,2-0.1,2-2c0-6.9,0-13.9,0-20.8c0.2-55.7,0.6-111.4,0.6-167.1c0-21-0.7-42.1-1.2-63.1
	c-0.1-3,0.3-2.7-2.9-2.6c-11.7,0.5-23.5,0.9-35.2,0.1c-14.6-1-29.2-2-43.8-3.1c-36.3-2.7-72.6-4.1-109-4.2C78.2,18,51,18,23.9,18
	c-2,0-2,0-2,2c0,5.1,0.1,10.3,0,15.4c-0.6,38-0.6,75.9-0.1,113.9c0.5,38.5,0.5,77,0.8,115.6c0,3.7,0.1,7.5,0.2,11.2
	c0,0.8,0.1,1.8,1.2,1.7c3.9-0.3,7.9,1.5,11.8-1.6C35,276.9,34.7,277.2,34.3,277.8z"/>
<path id="XMLID_42_" class="st1" d="M159.4,67.3c-0.8,0.7-1.6,1.2-2.2,1.8c-12.7,10.8-23.7,23.2-33.4,36.7c-5.2,7.2-10,14.7-15,22.1
	c-1.3,2-2.7,3.9-4.3,5.7c-1,1.1-2.1,2.2-3.4,3c-6.1,3.9-13.6,0.1-13.7-7.2c0-2.6,0.5-5.5,1.7-7.9c2.8-6,5.8-11.9,9.2-17.5
	c8.5-13.8,18.2-26.7,29.5-38.3c8.3-8.6,17.6-15.9,27.9-22c6.7-3.9,12.7-4.6,19.8,2.8C183.7,55,191.4,64,199,73.1
	c10.4,12.4,20.6,25,31,37.5c1.6,1.9,3.5,3.7,5,5.7c5.3,7,1.3,16.7-7.2,17.7c-4.2,0.5-7.6-1.2-10.2-4.4c-2.2-2.8-4.3-5.7-6.5-8.6
	c-10.6-14.1-21.2-28.2-32.7-41.5c-0.4-0.4-0.8-0.9-1.5-1.7c-0.1,1-0.2,1.5-0.2,2.1c0.1,12.7,0.1,25.5,0.3,38.2
	c0.6,30.3,1.2,60.6,1.9,90.9c0.2,8.2,0.6,16.4,1.1,24.6c0.2,2.9,0.8,5.7,1.1,8.5c0.7,9-7.2,15.5-15.5,13.1
	c-5.3-1.5-8.8-6.2-8.8-12.2c0-4.9,0.2-9.8,0.3-14.6c0.4-20.7,0.7-41.4,1.2-62.1c0.5-22.5,1.3-45,1.7-67.5c0.2-8.5-0.3-17-0.4-25.5
	C159.4,71.4,159.4,69.4,159.4,67.3z"/>
</svg>
