<?xml version="1.0" encoding="utf-8"?>
<!-- Generator: Adobe Illustrator 19.2.1, SVG Export Plug-In . SVG Version: 6.00 Build 0)  -->
<svg version="1.1" id="Layer_1" xmlns="http://www.w3.org/2000/svg" xmlns:xlink="http://www.w3.org/1999/xlink" x="0px" y="0px"
	 viewBox="0 0 160 212.6" style="enable-background:new 0 0 160 212.6;" xml:space="preserve">
<style type="text/css">
	.st0{fill:#42453F;}
	.st1{fill:#171B14;}
</style>
<g id="XMLID_11_">
	<polygon id="XMLID_18_" class="st0" points="144.8,92.6 70.7,124.9 69.5,127 75,184.5 77.5,186.3 113.8,176 115.1,174.8 
		147.4,95.2 	"/>
	<polygon id="XMLID_17_" class="st0" points="91.5,86.9 37.9,46.6 34.6,48.1 29,127.3 29.7,128.9 82.7,177 86.1,175.7 92.3,88.6 	
		"/>
	<polygon id="XMLID_16_" class="st0" points="158.7,149.9 56.2,155.4 54.4,158.1 75.2,212.2 78,212.6 160,153.5 	"/>
	<polygon id="XMLID_15_" class="st0" points="35.4,0.2 31.5,0 0,105.2 0.3,107 75.2,212.2 78.8,210.6 	"/>
	<polygon id="XMLID_14_" class="st1" points="89.7,123.3 91.5,152 87.7,153.1 	"/>
	<polygon id="XMLID_13_" class="st1" points="47,56.2 69.5,147.6 120.2,151.9 66.3,153.7 	"/>
	<polygon id="XMLID_12_" class="st1" points="65.4,149.2 68.7,153.7 83.7,208.5 78,212.6 	"/>
</g>
</svg>
