<?xml version="1.0" encoding="utf-8"?>
<!-- Generator: Adobe Illustrator 19.2.1, SVG Export Plug-In . SVG Version: 6.00 Build 0)  -->
<svg version="1.1" id="Layer_1" xmlns="http://www.w3.org/2000/svg" xmlns:xlink="http://www.w3.org/1999/xlink" x="0px" y="0px"
	 viewBox="0 0 160 212.6" style="enable-background:new 0 0 160 212.6;" xml:space="preserve">
<style type="text/css">
	.st0{fill:#F1EFED;}
	.st1{fill:#A2A19C;}
</style>
<g id="XMLID_2_">
	<polygon id="XMLID_9_" class="st0" points="144.9,92.9 70.9,125.2 69.7,127.2 75.2,184.8 77.7,186.5 114,176.3 115.3,175.1 
		147.6,95.5 	"/>
	<polygon id="XMLID_8_" class="st0" points="91.7,87.1 38,46.9 34.8,48.4 29.2,127.6 29.8,129.2 82.9,177.3 86.3,176 92.5,88.9 	"/>
	<polygon id="XMLID_7_" class="st0" points="158.8,150.1 56.4,155.7 54.6,158.4 75.3,212.4 78.2,212.9 160.1,153.8 	"/>
	<polygon id="XMLID_6_" class="st0" points="35.6,0.4 31.7,0.3 0.2,105.5 0.5,107.2 75.3,212.4 79,210.9 	"/>
	<polygon id="XMLID_5_" class="st1" points="89.9,123.6 91.7,152.3 87.8,153.3 	"/>
	<polygon id="XMLID_4_" class="st1" points="47.2,56.5 69.7,147.9 120.3,152.2 66.5,153.9 	"/>
	<polygon id="XMLID_3_" class="st1" points="65.6,149.4 68.9,153.9 83.9,208.8 78.2,212.9 	"/>
</g>
</svg>
