<?xml version="1.0" encoding="utf-8"?>
<!-- Generator: Adobe Illustrator 19.0.0, SVG Export Plug-In . SVG Version: 6.00 Build 0)  -->
<svg version="1.1" id="Layer_1" xmlns="http://www.w3.org/2000/svg" xmlns:xlink="http://www.w3.org/1999/xlink" x="0px" y="0px"
	 viewBox="-189 227.1 579.8 106.9" style="enable-background:new -189 227.1 579.8 106.9;" xml:space="preserve">
<style type="text/css">
	.st0{fill:#42453F;}
	.st1{fill:#171B14;}
</style>
<g id="XMLID_31_">
	<path id="XMLID_33_" class="st0" d="M-52.3,307v-51.1l6.6-3.1h0.3v47.9h24v0.3l-2.8,6H-52.3z"/>
	<path id="XMLID_35_" class="st0" d="M-5.9,308.4v-52.5l6.6-3.1H1v52.5l-6.6,3.1C-5.6,308.4-5.9,308.4-5.9,308.4z"/>
	<path id="XMLID_37_" class="st0" d="M23.4,307v-51.1l6.6-3.1h0.3v47.9h24v0.3l-2.8,6H23.4z"/>
	<path id="XMLID_39_" class="st0" d="M69.8,307v-51.1l6.6-3.1h0.3v47.9h24v0.3l-2.8,6H69.8z"/>
	<path id="XMLID_41_" class="st0" d="M117.8,308.4v-52.5l6.6-3.1h0.3v52.5l-6.6,3.1C118.1,308.4,117.8,308.4,117.8,308.4z"/>
	<path id="XMLID_43_" class="st0" d="M145.6,308.4v-42c0-8.2,4.1-12.2,12.2-12.2h10.8c8.2,0,12.2,4.1,12.2,12.2v38.8l-6.6,3.1h-0.3
		v-24.6h-21.3v21.5l-6.6,3.1h-0.4V308.4z M152.6,277.4h21.3v-11c0-4-1.7-5.9-5.2-5.9h-10.8c-3.5,0-5.2,2-5.2,5.9L152.6,277.4
		L152.6,277.4z"/>
	<path id="XMLID_46_" class="st0" d="M201.7,308.4v-42c0-8.2,4.1-12.2,12.2-12.2h10.8c8.2,0,12.2,4.1,12.2,12.2v38.8l-6.6,3.1H230
		v-42c0-4-1.7-5.9-5.2-5.9H214c-3.5,0-5.2,2-5.2,5.9v38.8l-6.6,3.1h-0.5V308.4z"/>
	<path id="XMLID_48_" class="st0" d="M284,307v-51.1l6.6-3.1h0.3v47.9h24v0.3l-2.8,6H284z"/>
	<path id="XMLID_50_" class="st0" d="M329.1,308.4v-52.5l6.6-3.1h0.3v52.5l-6.6,3.1C329.4,308.4,329.1,308.4,329.1,308.4z"/>
	<path id="XMLID_52_" class="st0" d="M355.4,308.4v-42c0-8.2,4.1-12.2,12.2-12.2h10.8c8.2,0,12.2,4.1,12.2,12.2v38.8l-6.6,3.1h-0.3
		v-42c0-4-1.7-5.9-5.2-5.9h-10.8c-3.5,0-5.2,2-5.2,5.9v38.8l-6.6,3.1h-0.5V308.4z"/>
</g>
<g id="XMLID_20_">
	<polygon id="XMLID_27_" class="st0" points="-116.2,273.7 -153.5,289.9 -154.1,291 -151.3,319.9 -150,320.8 -131.8,315.6 
		-131.1,315 -114.9,275 	"/>
	<polygon id="XMLID_26_" class="st0" points="-143,270.8 -170,250.6 -171.6,251.3 -174.4,291.1 -174.1,291.9 -147.4,316.1 
		-145.7,315.5 -142.6,271.7 	"/>
	<polygon id="XMLID_25_" class="st0" points="-109.2,302.5 -160.7,305.2 -161.6,306.6 -151.2,333.8 -149.8,334 -108.6,304.3 	"/>
	<polygon id="XMLID_24_" class="st0" points="-171.2,227.2 -173.1,227.1 -189,280 -188.9,280.9 -151.2,333.8 -149.4,333 	"/>
	<polygon id="XMLID_23_" class="st1" points="-143.9,289.1 -143,303.6 -144.9,304.1 	"/>
	<polygon id="XMLID_22_" class="st1" points="-165.4,255.4 -154.1,301.3 -128.6,303.5 -155.6,304.4 	"/>
	<polygon id="XMLID_21_" class="st1" points="-156.1,302.1 -154.4,304.4 -146.9,332 -149.8,334 	"/>
</g>
</svg>
