<?xml version="1.0" encoding="utf-8"?>
<!-- Generator: Adobe Illustrator 19.0.0, SVG Export Plug-In . SVG Version: 6.00 Build 0)  -->
<svg version="1.1" id="Layer_1" xmlns="http://www.w3.org/2000/svg" xmlns:xlink="http://www.w3.org/1999/xlink" x="0px" y="0px"
	 viewBox="0 0 579.8 106.9" style="enable-background:new 0 0 579.8 106.9;" xml:space="preserve">
<style type="text/css">
	.st0{fill:#42453F;}
	.st1{fill:#171B14;}
</style>
<g id="XMLID_31_">
	<path id="XMLID_33_" class="st0" d="M136.7,79.9V28.8l6.6-3.1h0.3v47.9h24v0.3l-2.8,6H136.7z"/>
	<path id="XMLID_35_" class="st0" d="M183.1,81.3V28.8l6.6-3.1h0.3v52.5l-6.6,3.1H183.1z"/>
	<path id="XMLID_37_" class="st0" d="M212.4,79.9V28.8l6.6-3.1h0.3v47.9h24v0.3l-2.8,6H212.4z"/>
	<path id="XMLID_39_" class="st0" d="M258.8,79.9V28.8l6.6-3.1h0.3v47.9h24v0.3l-2.8,6H258.8z"/>
	<path id="XMLID_41_" class="st0" d="M306.8,81.3V28.8l6.6-3.1h0.3v52.5l-6.6,3.1H306.8z"/>
	<path id="XMLID_43_" class="st0" d="M334.6,81.3v-42c0-8.2,4.1-12.2,12.2-12.2h10.8c8.2,0,12.2,4.1,12.2,12.2v38.8l-6.6,3.1h-0.3
		V56.6h-21.3v21.5l-6.6,3.1H334.6z M341.6,50.3h21.3v-11c0-4-1.7-5.9-5.2-5.9h-10.8c-3.5,0-5.2,2-5.2,5.9V50.3z"/>
	<path id="XMLID_46_" class="st0" d="M390.7,81.3v-42c0-8.2,4.1-12.2,12.2-12.2h10.8c8.2,0,12.2,4.1,12.2,12.2v38.8l-6.6,3.1H419
		v-42c0-4-1.7-5.9-5.2-5.9h-10.8c-3.5,0-5.2,2-5.2,5.9v38.8l-6.6,3.1H390.7z"/>
	<path id="XMLID_48_" class="st0" d="M473,79.9V28.8l6.6-3.1h0.3v47.9h24v0.3l-2.8,6H473z"/>
	<path id="XMLID_50_" class="st0" d="M518.1,81.3V28.8l6.6-3.1h0.3v52.5l-6.6,3.1H518.1z"/>
	<path id="XMLID_52_" class="st0" d="M544.4,81.3v-42c0-8.2,4.1-12.2,12.2-12.2h10.8c8.2,0,12.2,4.1,12.2,12.2v38.8l-6.6,3.1h-0.3
		v-42c0-4-1.7-5.9-5.2-5.9h-10.8c-3.5,0-5.2,2-5.2,5.9v38.8l-6.6,3.1H544.4z"/>
</g>
<g id="XMLID_20_">
	<polygon id="XMLID_27_" class="st0" points="72.8,46.6 35.5,62.8 34.9,63.9 37.7,92.8 39,93.7 57.2,88.5 57.9,87.9 74.1,47.9 	"/>
	<polygon id="XMLID_26_" class="st0" points="46,43.7 19,23.5 17.4,24.2 14.6,64 14.9,64.8 41.6,89 43.3,88.4 46.4,44.6 	"/>
	<polygon id="XMLID_25_" class="st0" points="79.8,75.4 28.3,78.1 27.4,79.5 37.8,106.7 39.2,106.9 80.4,77.2 	"/>
	<polygon id="XMLID_24_" class="st0" points="17.8,0.1 15.9,0 0,52.9 0.1,53.8 37.8,106.7 39.6,105.9 	"/>
	<polygon id="XMLID_23_" class="st1" points="45.1,62 46,76.5 44.1,77 	"/>
	<polygon id="XMLID_22_" class="st1" points="23.6,28.3 34.9,74.2 60.4,76.4 33.4,77.3 	"/>
	<polygon id="XMLID_21_" class="st1" points="32.9,75 34.6,77.3 42.1,104.9 39.2,106.9 	"/>
</g>
</svg>
